<?xml version="1.0" standalone="no"?>
<!DOCTYPE svg PUBLIC "-//W3C//DTD SVG 20010904//EN"
 "http://www.w3.org/TR/2001/REC-SVG-20010904/DTD/svg10.dtd">
<svg version="1.0" xmlns="http://www.w3.org/2000/svg"
 width="420.000000pt" height="594.000000pt" viewBox="0 0 420.000000 594.000000"
 preserveAspectRatio="xMidYMid meet">

<g transform="translate(0.000000,594.000000) scale(0.100000,-0.100000)"
fill="#000000" stroke="none">
<path d="M1924 5121 c-32 -22 -94 -71 -137 -110 -77 -70 -102 -82 -125 -59 -9
9 -17 6 -37 -12 -32 -30 -32 -50 0 -50 14 0 25 -4 25 -8 0 -14 -53 -59 -78
-67 -12 -3 -34 -23 -47 -43 -22 -32 -23 -37 -9 -40 10 -3 48 27 98 76 l81 80
63 0 c34 -1 62 -3 62 -5 0 -2 -9 -22 -21 -44 -40 -79 -8 -112 62 -63 40 28 47
44 10 24 -17 -9 -22 -8 -27 4 -9 22 28 80 53 84 24 4 73 53 58 59 -39 14 -38
20 4 94 69 120 59 143 -35 80z m26 -18 c0 -5 -20 -39 -44 -78 -42 -69 -43 -70
-89 -73 -26 -2 -47 1 -47 5 0 16 154 153 172 153 5 0 8 -3 8 -7z"/>
<path d="M2974 5091 c-175 -45 -227 -180 -104 -270 113 -81 319 -61 386 39 72
105 -21 221 -188 234 -34 3 -77 1 -94 -3z m202 -39 c147 -75 116 -214 -57
-258 -180 -46 -354 74 -283 195 20 33 73 71 116 82 58 15 179 4 224 -19z"/>
<path d="M2884 4996 c-10 -26 1 -139 14 -144 8 -2 12 12 13 50 l1 53 14 -44
c25 -82 45 -79 60 8 l8 46 6 -55 c7 -79 25 -63 25 23 0 67 -2 72 -22 75 -17 2
-23 -2 -23 -15 -1 -10 -7 -31 -14 -48 l-14 -30 -12 48 c-9 35 -17 47 -32 47
-10 0 -21 -6 -24 -14z"/>
<path d="M3059 4998 c-5 -103 -3 -142 9 -146 8 -2 12 8 12 32 0 49 30 49 56 1
10 -19 22 -35 26 -35 16 0 16 18 -2 47 -16 26 -16 32 -4 37 19 7 18 62 -2 70
-29 11 -94 7 -95 -6z m84 -22 c7 -17 -11 -36 -34 -36 -22 0 -33 16 -25 35 7
19 52 19 59 1z"/>
<path d="M1985 4958 c-19 -22 -25 -39 -22 -57 3 -14 1 -35 -5 -46 -5 -11 7 -3
27 18 20 20 45 37 56 37 12 0 19 -3 17 -7 -40 -79 -48 -104 -38 -123 18 -34
41 -23 118 55 41 41 82 75 93 75 22 0 25 -13 6 -29 -8 -6 -20 -29 -27 -51 -10
-32 -11 -42 0 -55 18 -22 32 -19 75 18 l39 34 17 -31 c22 -42 65 -47 99 -11
13 14 32 25 43 25 11 0 41 23 68 50 37 38 55 50 79 50 16 0 30 -2 30 -4 0 -2
-22 -20 -50 -40 -27 -20 -50 -40 -50 -44 0 -5 11 -14 25 -20 28 -13 33 -37 9
-50 -8 -5 -35 -28 -60 -51 -32 -32 -44 -51 -44 -72 0 -21 5 -29 17 -29 24 0
121 103 129 137 3 15 25 45 48 67 22 21 30 31 16 22 -42 -28 -48 -28 -69 -7
-12 12 -21 23 -21 25 0 2 23 19 51 36 33 22 48 38 45 47 -4 8 -6 20 -6 27 0 8
-20 12 -61 11 -67 0 -93 -19 -83 -60 6 -24 -35 -75 -61 -75 -19 0 -19 -1 1 45
14 34 14 40 -1 72 -15 30 -20 34 -43 28 -38 -8 -73 -36 -98 -76 -46 -72 -99
-108 -111 -73 -2 6 13 34 32 63 46 67 41 86 -20 78 -38 -6 -45 -4 -45 11 -1
13 -8 9 -31 -17 -23 -25 -30 -40 -26 -60 3 -14 0 -33 -6 -41 -16 -22 -59 -50
-74 -50 -23 0 -14 46 17 85 43 54 37 70 -24 68 -37 -1 -46 2 -42 13 9 25 -11
15 -39 -18z m469 -45 c-4 -10 -9 -37 -12 -59 -3 -33 -9 -44 -29 -53 -62 -28
-66 42 -5 97 39 35 58 42 46 15z m141 -212 c-22 -44 -85 -89 -85 -61 0 12 79
90 91 90 5 0 3 -13 -6 -29z"/>
<path d="M2100 4526 c0 -8 -10 -16 -22 -18 -28 -4 -27 -22 2 -26 30 -5 26 -40
-7 -53 -16 -5 -39 -22 -52 -36 -19 -21 -22 -29 -13 -43 9 -15 7 -19 -7 -23
-11 -2 -25 -1 -32 4 -8 5 -26 9 -41 9 -15 0 -30 5 -33 10 -3 6 -17 10 -30 10
-13 0 -27 5 -30 10 -3 6 -21 10 -39 10 -19 0 -40 7 -47 16 -10 12 -23 14 -50
10 -21 -3 -40 -2 -43 3 -3 5 -33 8 -66 8 -40 -1 -53 -4 -39 -9 33 -12 19 -42
-22 -48 -31 -6 -35 -4 -37 16 -1 13 6 28 16 34 15 10 15 11 -3 4 -11 -4 -37
-6 -58 -5 -28 1 -46 -5 -67 -23 -23 -18 -26 -25 -15 -30 26 -9 17 -43 -14 -56
-52 -21 -92 18 -55 54 8 9 11 16 6 16 -13 0 -28 -21 -35 -47 -3 -16 -1 -23 9
-23 22 0 34 -33 19 -53 -10 -13 -24 -17 -52 -15 -33 3 -38 7 -41 29 -3 22 2
29 25 37 15 6 22 11 15 11 -42 3 -69 -48 -41 -76 8 -8 5 -14 -10 -22 -27 -15
-27 -46 0 -64 13 -9 16 -17 10 -22 -6 -3 -11 -14 -11 -24 0 -21 57 -66 62 -49
3 7 14 9 31 4 29 -7 57 -50 57 -89 0 -30 18 -47 48 -47 13 0 37 -11 53 -24 26
-22 27 -26 13 -34 -19 -11 -10 -32 13 -32 13 0 10 -7 -10 -28 -15 -16 -24 -31
-21 -35 4 -4 12 -1 18 7 6 7 25 16 43 19 31 6 32 6 15 -13 -9 -11 -26 -20 -37
-20 -20 -1 -20 -1 2 -19 12 -10 21 -26 20 -36 -2 -18 11 -19 273 -20 151 0
226 2 165 5 l-110 4 130 7 c85 4 30 6 -160 4 -177 -1 -269 2 -235 7 30 4 210
11 400 14 282 5 381 3 545 -11 110 -9 202 -19 205 -22 3 -3 -24 -3 -60 1 -36
3 -171 8 -300 10 -173 2 -194 2 -80 -3 117 -5 140 -8 95 -12 -56 -5 -54 -5 35
-9 l95 -4 -85 -7 c-47 -3 -13 -4 75 -1 136 4 196 7 238 11 4 1 4 13 1 27 -5
18 -3 25 3 21 6 -4 16 0 23 8 10 12 9 15 -6 15 -11 0 -26 5 -34 10 -12 7 -10
11 10 18 30 11 50 5 50 -15 0 -8 5 -11 11 -8 7 5 2 16 -12 31 -22 24 -22 24
-3 39 16 12 17 16 4 24 -24 16 25 61 67 61 19 0 35 6 37 13 18 72 34 103 59
117 23 13 29 13 36 1 7 -11 13 -10 35 5 20 14 26 26 23 47 -2 17 3 33 15 44
24 21 23 38 -3 56 -18 13 -19 18 -7 36 17 28 2 53 -40 66 -20 6 -32 16 -32 27
0 9 -9 22 -19 28 -31 16 -35 12 -10 -9 20 -16 22 -23 13 -38 -14 -23 -41 -28
-70 -12 -30 16 -31 47 -1 59 19 7 19 9 3 9 -10 1 -24 8 -30 17 -10 13 -12 11
-11 -13 0 -24 -4 -28 -31 -31 -38 -4 -63 20 -44 43 10 12 10 15 -4 15 -9 0
-16 5 -16 10 0 6 -8 10 -17 10 -15 0 -15 -1 2 -14 27 -19 13 -46 -25 -46 -36
0 -52 27 -27 45 13 9 6 12 -38 13 -30 1 -57 -3 -60 -8 -4 -6 -23 -7 -44 -4
-27 4 -42 2 -53 -9 -9 -10 -24 -14 -37 -10 -13 3 -29 -1 -41 -12 -10 -9 -24
-14 -30 -10 -6 4 -22 0 -35 -9 -13 -9 -31 -13 -40 -10 -8 4 -21 1 -28 -4 -7
-6 -23 -9 -35 -5 -17 4 -20 9 -12 19 16 18 -16 63 -57 80 -41 18 -47 54 -8 54
29 0 34 20 6 27 -11 3 -22 11 -25 19 -7 18 -36 18 -36 0z m55 -29 c15 -4 13
-5 -7 -6 -22 -1 -28 -6 -29 -23 l-2 -23 -4 23 c-3 16 -12 22 -31 23 l-27 2 28
4 c17 3 27 11 27 21 0 14 1 14 13 0 6 -9 21 -18 32 -21z m-17 -90 c3 -12 -3
-17 -22 -17 -25 0 -35 18 -19 34 12 12 38 2 41 -17z m-483 -22 c0 -13 -8 -21
-24 -23 -28 -4 -46 11 -37 33 9 25 61 16 61 -10z m-185 0 c18 -21 -4 -45 -42
-45 -16 0 -31 6 -34 15 -10 26 4 45 34 45 16 0 35 -7 42 -15z m275 -10 c0 -13
-8 -21 -24 -23 -28 -4 -46 11 -37 33 9 25 61 16 61 -10z m890 0 c0 -12 -8 -21
-20 -23 -28 -3 -49 13 -42 33 10 25 62 16 62 -10z m-90 -10 c0 -13 -8 -21 -24
-23 -28 -4 -46 11 -37 33 9 25 61 16 61 -10z m-329 3 c15 -15 -6 -19 -96 -19
-97 1 -139 12 -80 22 48 8 167 6 176 -3z m-391 -18 c0 -19 -45 -26 -56 -9 -12
20 0 30 29 27 16 -2 27 -9 27 -18z m632 4 c5 -14 -11 -34 -27 -34 -3 0 -11 4
-19 9 -19 12 -6 41 19 41 11 0 23 -7 27 -16z m-632 -44 c66 -16 135 -30 153
-30 48 0 39 -20 -10 -22 l-43 -1 42 -4 42 -4 0 -81 -1 -80 -30 6 c-28 5 -30 4
-24 -17 4 -16 -1 -27 -16 -39 -22 -16 -22 -17 -5 -36 10 -11 15 -26 11 -36 -5
-13 0 -16 28 -16 19 0 50 5 67 11 46 16 61 -2 25 -30 -32 -26 -85 -27 -125 -4
-23 14 -27 22 -23 42 4 22 4 23 -6 9 -6 -10 -18 -18 -25 -18 -18 0 -20 27 -2
33 7 2 6 3 -3 3 -9 -1 -15 -11 -15 -27 0 -34 -20 -57 -53 -62 l-27 -4 28 -2
c18 0 36 8 51 24 l24 26 38 -27 c32 -21 47 -25 86 -21 26 2 45 0 42 -5 -10
-16 -98 -8 -132 12 -30 18 -35 19 -48 5 -9 -8 -26 -18 -40 -21 -26 -7 -87 5
-66 13 8 3 5 11 -10 23 -32 25 -21 31 41 21 50 -8 52 -7 47 12 -3 12 -1 27 5
33 8 9 5 16 -10 26 -12 7 -21 21 -21 30 0 20 -17 23 -40 7 -12 -8 -10 -9 8 -4
16 5 22 2 22 -10 0 -8 7 -18 15 -21 17 -7 20 -34 4 -34 -8 0 -8 -5 1 -15 11
-13 8 -15 -18 -15 -36 0 -62 9 -62 21 0 4 7 6 15 3 8 -4 15 -1 15 5 0 6 8 11
17 11 25 0 10 9 -23 14 -49 6 -62 15 -56 38 3 14 1 19 -6 14 -7 -4 -12 -3 -12
1 0 5 -7 18 -15 29 -15 18 -15 18 -9 -9 5 -23 4 -26 -12 -20 -18 6 -18 6 -1
-14 17 -19 17 -21 0 -34 -15 -11 -16 -11 -6 0 9 11 4 21 -25 48 -29 28 -33 36
-22 43 13 8 12 10 -2 10 -24 0 -23 -19 4 -47 14 -15 17 -23 8 -23 -10 0 -9 -3
3 -12 19 -15 11 -33 -18 -41 -15 -4 -14 -5 8 -6 15 0 27 -5 27 -11 0 -5 7 -7
15 -4 25 10 17 -5 -12 -20 -19 -10 -23 -15 -11 -16 9 0 20 5 23 10 11 18 35
11 35 -10 0 -41 -81 -45 -88 -4 -2 11 -13 29 -24 41 -19 20 -19 22 -2 31 15 8
16 13 6 25 -10 12 -10 16 0 20 8 3 6 6 -6 6 -14 1 -17 -4 -12 -23 3 -14 1 -28
-5 -31 -6 -4 -8 -13 -5 -21 3 -8 1 -14 -5 -14 -7 0 -9 -10 -5 -26 4 -15 2 -32
-5 -40 -7 -8 -7 -14 -1 -14 5 0 16 9 23 19 14 19 15 19 44 0 17 -11 23 -19 15
-19 -9 0 -22 6 -28 12 -10 10 -15 10 -20 1 -22 -35 -112 -33 -126 3 -4 11 1
10 22 -3 27 -17 27 -17 10 3 -24 28 -23 34 7 34 25 0 34 14 16 24 -5 3 -7 15
-4 27 6 20 -10 39 -32 39 -5 -1 -2 -5 8 -11 12 -7 16 -17 11 -31 -4 -13 -1
-24 7 -29 21 -13 -17 -12 -42 2 -16 8 -18 13 -8 25 14 17 -2 19 -19 2 -9 -9
-12 -8 -12 7 0 17 -2 18 -10 5 -7 -11 -10 -7 -10 18 0 31 12 42 25 22 3 -5 14
-9 23 -9 15 1 15 2 0 6 -10 2 -18 9 -18 14 0 19 -31 8 -39 -13 -8 -21 -10 -19
-16 17 -4 22 -14 49 -21 60 -8 11 -14 36 -14 57 0 48 45 101 103 122 23 8 34
15 24 15 -28 1 -93 -35 -117 -66 -18 -23 -21 -38 -18 -85 3 -41 1 -58 -8 -58
-16 0 -24 23 -24 66 0 90 82 156 218 175 86 11 184 2 317 -31z m70 20 c0 -18
-33 -26 -47 -12 -6 6 -7 15 -3 22 10 16 50 8 50 -10z m486 -5 c0 -5 -12 -11
-26 -13 -18 -2 -25 1 -25 13 0 12 7 15 25 13 14 -2 26 -7 26 -13z m371 1 c105
-23 167 -71 181 -141 8 -38 -4 -97 -21 -103 -10 -3 -11 8 -7 45 8 57 -4 94
-40 125 -30 26 -101 57 -130 57 -11 0 3 -8 32 -18 72 -25 102 -47 120 -88 16
-41 11 -94 -12 -113 -8 -7 -15 -27 -15 -44 -1 -28 -2 -29 -14 -13 -16 21 -33
22 -52 2 -14 -13 -14 -15 -1 -15 9 0 17 6 20 13 6 16 14 7 22 -26 5 -17 3 -27
-4 -27 -6 0 -11 6 -11 13 0 9 -3 8 -9 -2 -7 -11 -13 -11 -32 -1 -24 13 -24 13
-5 -8 18 -21 18 -22 -8 -32 -35 -13 -43 -13 -29 1 6 6 9 18 6 27 -4 8 2 21 12
28 15 12 16 14 3 14 -21 0 -40 -24 -32 -43 3 -8 1 -18 -5 -22 -21 -12 -11 -25
21 -25 25 0 29 -3 20 -12 -17 -17 -15 -33 3 -18 8 7 15 9 15 5 0 -12 -33 -34
-50 -34 -10 0 -8 4 5 10 17 8 16 9 -6 4 -14 -2 -34 2 -45 10 -16 12 -17 17 -7
34 8 13 9 22 3 26 -6 3 -10 15 -10 26 0 17 -4 16 -30 -11 -32 -32 -49 -37 -68
-18 -13 13 -17 32 -4 24 4 -2 23 -1 42 4 33 7 33 8 7 9 -19 1 -26 5 -21 13 5
8 2 9 -11 5 -22 -9 -49 11 -36 27 6 7 4 16 -5 24 -9 8 -14 9 -14 2 0 -6 -5 -8
-11 -4 -7 4 -10 -1 -7 -12 5 -25 -31 -45 -51 -30 -11 8 -13 8 -7 -1 5 -9 0
-13 -16 -14 -19 0 -17 -3 11 -13 l33 -12 -26 -12 c-15 -7 -39 -12 -53 -12 -21
0 -23 3 -14 14 9 10 9 16 1 21 -6 4 -9 14 -5 23 3 9 3 13 -2 9 -4 -5 -8 -24
-9 -43 -1 -35 0 -36 35 -32 20 3 44 8 54 12 12 6 17 4 17 -8 0 -19 -30 -36
-64 -36 -44 0 -56 10 -57 49 -1 20 -3 28 -6 18 -5 -20 -40 -18 -35 2 1 7 -2
10 -7 7 -5 -3 -7 -14 -4 -25 11 -43 -96 -70 -145 -35 -41 29 -19 59 26 35 9
-5 33 -11 52 -12 30 -3 35 -1 33 16 -1 11 5 24 13 28 18 10 18 36 -1 43 -9 4
-15 19 -15 35 0 26 -3 28 -27 23 l-28 -5 -2 75 c-2 66 0 76 15 76 14 0 14 2 3
9 -22 14 -3 31 36 31 19 0 81 11 137 24 55 13 110 26 121 29 42 10 163 6 227
-7z m-792 -11 c0 -8 -9 -15 -20 -15 -11 0 -20 7 -20 15 0 8 9 15 20 15 11 0
20 -7 20 -15z m348 -2 c5 -18 -28 -29 -38 -12 -5 7 -6 17 -3 22 7 12 35 5 41
-10z m-280 -10 c2 -8 -5 -13 -17 -13 -21 0 -35 13 -24 24 10 10 36 3 41 -11z
m212 2 c0 -8 -9 -15 -20 -15 -20 0 -26 11 -13 23 12 13 33 7 33 -8z m-107 -2
c-7 -2 -21 -2 -30 0 -10 3 -4 5 12 5 17 0 24 -2 18 -5z m8 -23 c31 -17 22 -26
-26 -25 -27 0 -45 5 -45 12 0 22 40 29 71 13z m873 -3 c27 -20 16 -50 -22 -62
-17 -5 -32 -13 -32 -17 0 -4 -5 -8 -10 -8 -6 0 -10 6 -8 13 1 6 -3 22 -10 34
-23 41 39 71 82 40z m-964 -47 c0 -27 -4 -50 -10 -50 -5 0 -10 23 -10 50 0 28
5 50 10 50 6 0 10 -22 10 -50z m150 1 c0 -28 -4 -53 -10 -56 -6 -4 -10 15 -10
49 0 31 5 56 10 56 6 0 10 -22 10 -49z m-46 4 c25 -26 10 -41 -41 -40 -51 1
-68 19 -37 42 24 17 59 17 78 -2z m-873 -29 c-7 -9 -10 -32 -7 -58 5 -42 4
-44 -27 -56 -19 -7 -35 -8 -41 -2 -14 14 12 40 40 40 13 0 24 5 24 11 0 6 -11
8 -28 5 -17 -4 -35 -1 -47 8 -30 22 -8 51 39 51 20 0 36 3 36 8 0 4 5 7 11 7
8 0 8 -4 0 -14z m1753 -22 c25 -25 3 -56 -36 -52 -42 4 -60 34 -34 54 26 18
51 18 70 -2z m-894 -9 c7 -8 25 -15 41 -15 38 0 37 -20 -2 -65 -38 -43 -32
-54 15 -31 44 21 70 21 62 0 -4 -10 3 -23 16 -34 l22 -17 -22 -14 c-16 -10
-18 -16 -10 -26 8 -10 3 -13 -21 -13 -36 0 -71 15 -71 31 0 6 7 6 20 -1 16 -9
18 -8 14 5 -5 11 2 15 27 17 l34 1 -33 4 c-25 3 -32 8 -28 19 4 12 1 14 -14 9
-11 -4 -29 -3 -40 0 -16 5 -18 10 -10 25 14 25 13 30 -5 24 -11 -5 -15 2 -17
27 l-1 34 -4 -33 c-4 -29 -7 -32 -26 -26 -18 5 -20 4 -9 -7 6 -7 12 -20 12
-28 0 -20 -69 60 -70 82 0 12 8 17 29 17 16 0 34 7 41 15 7 8 18 15 25 15 7 0
18 -7 25 -15z m876 -77 c3 -5 3 -16 0 -25 -5 -12 -9 -14 -18 -5 -7 7 -19 12
-27 12 -12 0 -11 -3 3 -13 16 -12 12 -13 -32 -12 -46 1 -51 -1 -56 -24 -2 -15
-12 -35 -21 -46 -9 -12 -14 -14 -11 -5 3 8 10 34 16 56 11 38 15 42 43 40 20
0 32 4 32 12 0 28 55 36 71 10z m-1666 -38 c0 -14 7 -36 16 -48 8 -12 11 -22
7 -22 -19 0 -33 26 -33 59 0 23 -3 32 -10 25 -5 -5 -28 -8 -51 -6 -54 6 -31
21 28 19 39 -2 43 -4 43 -27z m690 -1 c32 -18 33 -19 8 -14 -22 4 -26 2 -22
-10 5 -11 -1 -15 -22 -16 l-29 -2 28 -4 c16 -3 25 -9 21 -15 -4 -6 1 -8 15 -3
11 3 21 2 21 -3 0 -12 -46 -32 -76 -32 -21 0 -24 4 -19 20 5 14 2 20 -9 20
-23 0 -20 27 5 40 16 9 18 14 8 26 -18 22 28 18 71 -7z m-460 -104 c0 -8 -7
-15 -15 -15 -16 0 -20 12 -8 23 11 12 23 8 23 -8z m551 -12 c8 -9 28 -24 44
-35 17 -10 24 -18 16 -18 -8 0 -29 12 -48 26 -32 24 -36 25 -52 10 -27 -25
-33 -19 -9 9 26 29 31 30 49 8z m537 6 c-2 -6 -8 -10 -13 -10 -5 0 -11 4 -13
10 -2 6 4 11 13 11 9 0 15 -5 13 -11z m-913 -29 c8 -13 -8 -13 -21 0 -7 7 -16
4 -29 -10 -10 -11 -25 -20 -34 -19 -11 0 -9 4 6 11 13 6 25 19 28 29 5 15 10
17 25 9 10 -6 22 -15 25 -20z m630 -18 c16 -9 17 -11 4 -12 -9 0 -27 9 -41 19
-23 19 -24 19 -48 0 -14 -10 -32 -18 -40 -18 -8 0 2 9 22 19 20 11 40 25 44
31 5 8 12 5 23 -8 9 -11 25 -25 36 -31z m213 31 c12 -3 22 -9 22 -14 0 -6 -10
-14 -22 -19 -14 -5 -17 -9 -8 -9 9 -1 25 6 37 14 20 14 24 13 47 -10 27 -27
14 -35 -15 -9 -13 12 -22 13 -38 5 -32 -17 -79 -13 -101 9 -19 19 -22 19 -43
5 -12 -8 -31 -15 -42 -14 -17 0 -17 2 5 10 13 6 33 18 43 27 18 16 20 15 39
-11 11 -15 27 -27 36 -27 13 0 11 4 -6 16 -30 21 -30 49 1 39 12 -3 32 -9 45
-12z m-450 -38 c29 -24 35 -25 178 -25 81 0 144 3 141 7 -4 3 1 12 11 19 14
10 20 10 35 -4 12 -11 14 -18 6 -23 -6 -3 46 -10 115 -14 69 -4 126 -11 126
-16 0 -6 -21 -7 -47 -5 -237 26 -1001 32 -1200 10 -36 -4 -53 -3 -53 5 0 7 21
11 56 11 34 0 53 4 49 10 -9 15 24 25 38 11 7 -7 61 -11 161 -10 83 1 138 4
123 6 -23 4 -26 7 -16 19 15 19 34 18 54 -3 12 -11 35 -16 74 -17 46 -1 61 4
81 22 30 28 32 27 68 -3z m-394 0 c19 -14 17 -15 -18 -15 -33 0 -37 2 -26 15
15 18 20 18 44 0z m596 0 c11 -13 7 -15 -25 -15 -32 0 -36 2 -25 15 7 8 18 15
25 15 7 0 18 -7 25 -15z m305 -25 c8 -13 -5 -13 -25 0 -13 8 -13 10 2 10 9 0
20 -4 23 -10z m-341 -31 c72 -1 119 -4 105 -6 -60 -9 -73 -69 -18 -80 16 -3
26 -10 23 -15 -3 -5 -20 -6 -37 -2 -17 3 -164 7 -326 7 -163 1 -279 4 -257 8
57 9 74 45 34 73 -20 14 -12 16 103 19 68 2 151 2 183 0 32 -1 118 -4 190 -4z
m-599 -22 c-31 -26 -26 -52 13 -65 20 -7 -1 -10 -88 -15 -63 -3 -116 -4 -118
-2 -2 2 13 14 33 28 40 27 40 29 -25 48 l-45 14 75 6 c41 3 99 6 128 7 l53 2
-26 -23z m960 4 l50 -7 -40 -13 c-57 -19 -61 -27 -27 -45 43 -22 50 -38 15
-32 -15 2 -65 5 -110 5 -48 1 -83 5 -83 11 0 6 7 10 15 10 8 0 19 9 25 20 8
15 6 24 -10 40 l-20 20 68 -1 c37 0 90 -4 117 -8z m-854 -18 c18 -18 0 -33
-40 -33 -40 0 -77 25 -50 34 49 15 74 15 90 -1z m672 -7 c8 -20 -13 -36 -49
-36 -33 0 -60 22 -49 40 10 15 92 13 98 -4z"/>
<path d="M1502 4322 c-13 -4 29 -7 93 -7 64 0 106 3 93 7 -13 3 -54 6 -93 6
-38 0 -80 -3 -93 -6z"/>
<path d="M1765 4294 c28 -7 55 -13 60 -13 17 2 -69 27 -90 27 -11 0 3 -6 30
-14z"/>
<path d="M1855 4270 c11 -5 29 -9 40 -9 l20 0 -20 9 c-11 5 -29 9 -40 9 l-20
0 20 -9z"/>
<path d="M1640 4130 c-6 -11 -7 -20 -1 -20 5 0 11 7 15 15 7 19 35 20 42 1 3
-8 14 -11 28 -9 31 6 38 -7 20 -41 -17 -35 -18 -47 -1 -40 7 2 14 12 14 22 1
9 4 28 5 42 3 21 -2 26 -27 28 -16 2 -34 8 -39 13 -17 15 -45 10 -56 -11z"/>
<path d="M2587 4313 c18 -2 50 -2 70 0 21 2 7 4 -32 4 -38 0 -55 -2 -38 -4z"/>
<path d="M2410 4285 c-113 -31 -81 -31 40 0 52 13 84 24 70 23 -14 0 -63 -10
-110 -23z"/>
<path d="M2268 4253 c12 -2 30 -2 40 0 9 3 -1 5 -23 4 -22 0 -30 -2 -17 -4z"/>
<path d="M2516 4125 c-17 -13 -18 -15 -3 -15 9 0 17 5 17 10 0 6 9 10 20 10
11 0 20 -4 20 -10 0 -5 4 -10 10 -10 5 0 7 7 4 15 -8 19 -43 19 -68 0z"/>
<path d="M2464 4081 c2 -26 8 -47 16 -49 9 -3 11 1 5 14 -4 11 -11 33 -16 49
-7 26 -7 24 -5 -14z"/>
<path d="M2620 4098 c0 -7 -14 -27 -32 -45 -34 -35 -30 -40 21 -22 34 12 55 4
31 -11 -8 -5 -11 -12 -7 -17 9 -8 27 15 27 36 0 10 -9 12 -36 6 -34 -6 -36 -5
-20 10 24 25 39 55 26 55 -5 0 -10 -5 -10 -12z"/>
<path d="M2409 4067 c-7 -8 -4 -45 3 -41 4 3 6 9 3 14 -3 5 5 10 17 12 l23 3
-22 7 c-13 3 -24 5 -24 5z"/>
<path d="M2110 3880 c20 -13 53 -13 45 0 -3 6 -18 10 -33 10 -21 0 -24 -2 -12
-10z"/>
<path d="M2090 3820 c-8 -5 -10 -10 -5 -10 6 0 17 5 25 10 8 5 11 10 5 10 -5
0 -17 -5 -25 -10z"/>
<path d="M1913 3803 c9 -2 15 -9 11 -14 -3 -5 -10 -6 -16 -3 -7 4 -8 2 -4 -4
9 -15 36 -4 36 14 0 8 -9 14 -22 13 -18 -1 -19 -2 -5 -6z"/>
<path d="M2037 3804 c-8 -9 1 -24 14 -24 6 0 8 4 5 9 -4 5 0 12 6 14 9 4 8 6
-3 6 -9 1 -19 -2 -22 -5z"/>
<path d="M2163 3803 c4 -3 5 -9 1 -14 -3 -5 2 -9 10 -9 8 0 18 5 21 10 3 6 2
10 -4 10 -5 0 -15 2 -23 3 -7 2 -10 2 -5 0z"/>
<path d="M2285 3800 c-8 -13 3 -30 18 -29 9 0 9 2 0 6 -7 2 -13 9 -13 15 0 6
7 7 16 4 8 -3 12 -2 9 4 -8 13 -22 13 -30 0z"/>
<path d="M2088 3767 c14 -6 30 -7 43 -1 16 8 12 9 -23 10 -37 1 -40 0 -20 -9z"/>
<path d="M1617 3803 c-14 -13 -7 -33 11 -33 26 0 34 11 21 27 -13 14 -22 16
-32 6z m23 -13 c0 -5 -4 -10 -10 -10 -5 0 -10 5 -10 10 0 6 5 10 10 10 6 0 10
-4 10 -10z"/>
<path d="M2572 3784 c2 -11 11 -20 22 -22 13 -3 17 1 14 14 -2 11 -11 20 -22
22 -13 3 -17 -1 -14 -14z m28 -4 c0 -5 -4 -10 -10 -10 -5 0 -10 5 -10 10 0 6
5 10 10 10 6 0 10 -4 10 -10z"/>
<path d="M2788 4393 c6 -2 18 -2 25 0 6 3 1 5 -13 5 -14 0 -19 -2 -12 -5z"/>
<path d="M1718 3673 c18 -2 45 -2 60 0 15 2 0 4 -33 4 -33 0 -45 -2 -27 -4z"/>
<path d="M1898 3663 c46 -2 118 -2 160 0 42 1 5 3 -83 3 -88 0 -123 -2 -77 -3z"/>
<path d="M1449 3614 c-406 -300 -539 -847 -312 -1287 138 -267 363 -449 668
-543 85 -27 100 -28 290 -28 214 0 250 5 400 61 272 102 499 322 607 590 53
133 70 223 70 388 0 117 -4 156 -25 236 -60 229 -220 464 -402 589 -36 25 -54
31 -86 28 l-41 -3 69 -44 c87 -57 215 -186 277 -279 61 -92 110 -206 137 -318
31 -131 29 -324 -4 -455 -73 -281 -259 -511 -522 -642 -105 -53 -153 -70 -257
-91 -231 -48 -451 -21 -667 80 -263 123 -448 336 -537 619 -27 85 -29 100 -29
270 0 170 2 185 29 270 74 233 210 416 411 551 l80 54 -46 0 c-40 0 -56 -7
-110 -46z"/>
<path d="M2245 3601 c-97 -12 -191 -37 -346 -91 -81 -27 -159 -50 -173 -50
-22 0 -26 4 -26 29 0 42 -24 61 -77 61 -83 0 -132 -52 -120 -126 12 -73 64
-104 172 -104 l75 0 0 -547 c0 -350 -4 -562 -11 -586 -17 -61 -92 -93 -95 -40
-3 52 -43 67 -87 33 -65 -52 -53 -145 25 -180 114 -52 249 -3 327 118 52 81
70 152 78 293 l6 127 33 -32 c50 -49 116 -68 231 -67 235 1 440 125 569 341
68 114 89 192 89 330 0 109 -2 119 -33 184 -38 82 -151 200 -227 238 -117 60
-273 86 -410 69z m238 -47 c160 -33 294 -138 359 -280 19 -40 23 -67 23 -149
0 -167 -58 -305 -180 -430 -81 -82 -160 -133 -261 -167 -70 -23 -102 -28 -183
-28 -85 0 -104 3 -149 26 -89 44 -109 119 -48 180 28 28 41 34 77 34 24 0 51
-5 59 -10 13 -9 11 -13 -10 -30 -14 -11 -28 -20 -32 -20 -5 0 -8 -20 -8 -43 0
-54 20 -75 90 -93 62 -16 145 -5 210 28 108 55 211 199 245 343 21 88 19 249
-3 317 -40 120 -117 217 -209 264 -55 27 -65 29 -178 29 -109 -1 -125 -3 -179
-28 -86 -40 -120 -69 -150 -129 l-26 -52 0 -477 c0 -278 -4 -498 -10 -529 -20
-106 -75 -192 -153 -239 -29 -18 -53 -23 -101 -23 -97 0 -147 43 -112 97 22
34 33 31 40 -10 7 -34 15 -40 66 -46 60 -8 105 43 120 138 6 35 7 273 3 609
l-6 550 -86 -4 c-112 -4 -154 14 -159 70 -4 45 24 68 82 68 40 0 40 0 18 -16
-27 -19 -28 -28 -2 -54 33 -33 104 -26 254 24 185 61 202 66 286 80 103 18
230 18 313 0z m-31 -117 c71 -35 131 -100 171 -185 27 -58 32 -80 35 -167 8
-207 -84 -401 -229 -479 -62 -34 -176 -46 -219 -24 -35 19 -39 55 -6 68 37 14
51 46 32 75 -36 55 -150 57 -211 3 l-35 -30 0 309 c0 305 0 311 23 343 25 38
105 86 175 106 77 22 198 13 264 -19z"/>
<path d="M2711 2464 c-50 -64 2 -184 80 -184 78 0 80 136 3 195 -29 22 -60 18
-83 -11z m85 -48 c35 -35 47 -89 22 -99 -48 -18 -136 92 -101 126 15 16 47 5
79 -27z"/>
<path d="M2597 2438 c-14 -37 -15 -45 -7 -58 11 -17 24 28 17 57 -4 17 -4 17
-10 1z"/>
<path d="M2615 2329 c-14 -30 -23 -39 -37 -36 -51 14 -91 -74 -68 -149 8 -28
9 -47 1 -66 -20 -52 -29 -36 -56 98 -10 50 -60 38 -85 -19 -17 -38 -18 -39
-30 -18 -16 31 -50 23 -73 -17 -11 -18 -17 -36 -14 -39 4 -3 12 6 18 21 19 42
33 26 48 -58 12 -60 18 -76 30 -74 12 3 15 14 13 38 -3 46 18 137 35 151 16
14 21 3 37 -79 9 -46 15 -58 32 -60 23 -3 64 39 64 64 0 11 5 11 25 2 30 -13
66 7 95 55 26 42 15 49 -16 9 -27 -34 -61 -42 -70 -18 -3 8 4 25 16 38 25 27
34 60 27 90 -6 21 7 48 23 48 8 0 85 -112 109 -157 17 -34 13 -60 -14 -81 -14
-11 -25 -25 -25 -31 0 -21 29 -11 49 18 25 35 28 99 6 142 -28 53 -106 169
-114 169 -4 0 -16 -18 -26 -41z m-37 -99 c3 -30 -20 -66 -36 -56 -13 8 -16 68
-5 80 14 14 38 0 41 -24z"/>
<path d="M2400 2270 c0 -5 -9 -10 -21 -10 -32 0 -59 -19 -59 -40 0 -16 4 -18
18 -11 9 5 31 13 47 18 20 5 31 16 33 31 2 12 -1 22 -7 22 -6 0 -11 -4 -11
-10z"/>
<path d="M2155 2181 c-45 -11 -93 -39 -105 -60 -12 -23 -13 -61 -2 -61 16 0
32 24 32 48 0 17 9 27 36 38 20 8 39 13 42 10 8 -9 -68 -188 -91 -213 -22 -24
-56 -30 -73 -13 -8 8 -15 6 -24 -5 -19 -23 4 -37 48 -31 41 6 57 19 89 69 22
35 27 38 66 35 36 -3 42 -6 45 -28 2 -14 7 -29 12 -34 10 -10 80 12 80 26 0 6
-7 8 -15 4 -22 -8 -40 27 -65 132 -13 50 -28 92 -34 91 -6 -1 -24 -4 -41 -8z
m44 -143 c1 -14 -7 -18 -34 -18 l-35 0 20 50 c11 28 20 54 21 58 2 11 27 -71
28 -90z"/>
<path d="M1050 1736 c-3 -2 -25 -6 -50 -9 -25 -2 -54 -7 -65 -11 -167 -60
-271 -175 -251 -279 23 -123 220 -88 272 49 22 59 25 169 4 169 -10 0 -17 -16
-23 -55 -11 -76 -48 -130 -119 -176 -93 -60 -133 -4 -77 108 48 94 270 187
378 158 l44 -12 -31 -18 c-34 -21 -121 -138 -160 -217 -22 -45 -31 -53 -68
-63 -61 -17 -79 -40 -26 -33 22 3 42 1 46 -5 9 -15 -59 -132 -99 -169 -41 -39
-102 -58 -139 -43 -36 13 -44 38 -18 56 56 39 64 62 32 94 -29 29 -64 25 -94
-11 -36 -42 -35 -97 1 -133 34 -34 61 -41 153 -40 87 0 135 20 194 81 34 36
96 143 96 167 0 6 33 22 73 34 119 37 177 100 177 195 0 29 -7 53 -20 70 -26
33 -26 36 12 49 27 10 29 12 13 18 -11 4 -37 3 -59 -2 -28 -6 -49 -5 -75 5
-41 16 -114 30 -121 23z m174 -102 c16 -42 -4 -109 -50 -162 -33 -39 -90 -79
-100 -70 -5 5 20 95 38 139 18 42 75 109 93 109 7 0 16 -7 19 -16z"/>
<path d="M2964 1623 c-33 -109 -128 -258 -229 -359 -153 -154 -168 -148 -76
30 33 63 57 117 54 120 -4 3 -24 6 -46 6 -37 0 -48 -8 -189 -145 -186 -181
-216 -189 -167 -43 12 35 32 78 46 96 26 35 54 44 46 14 -3 -14 4 -22 28 -32
29 -13 33 -12 50 9 24 30 24 46 -1 71 -51 51 -140 17 -256 -98 -43 -42 -96
-92 -117 -109 -72 -61 -77 -36 -11 63 50 74 58 112 28 145 -32 35 -91 19 -162
-45 l-37 -34 -2 33 c-1 19 -6 43 -13 54 -25 48 -67 17 -206 -149 -88 -105
-109 -124 -129 -116 -13 5 -11 12 12 48 14 24 47 81 71 128 l44 85 -53 3 c-60
4 -43 16 -185 -139 -66 -72 -123 -123 -130 -116 -4 4 16 44 45 91 28 46 51 91
51 99 0 25 -41 47 -87 47 -41 0 -43 1 -43 30 0 42 -17 37 -31 -9 -6 -22 -29
-57 -50 -77 -22 -21 -39 -44 -39 -51 0 -25 28 -13 64 27 28 32 43 40 68 39 29
0 31 -2 15 -12 -39 -25 -55 -44 -71 -81 -24 -57 -21 -102 9 -131 43 -44 101
-25 148 49 29 46 104 123 112 115 3 -3 -7 -34 -21 -68 -42 -106 -23 -145 59
-121 60 16 117 66 157 136 34 60 74 104 96 104 26 0 14 -30 -51 -125 -36 -52
-65 -97 -65 -100 0 -3 30 -5 67 -3 l66 3 30 55 c40 75 98 142 154 179 60 40
78 39 32 -2 -79 -70 -103 -173 -53 -224 39 -39 76 -27 147 48 39 43 57 56 57
44 0 -32 22 -82 42 -94 29 -18 89 -16 129 4 19 10 60 40 93 68 49 42 57 46 51
26 -20 -61 7 -119 55 -119 25 0 86 43 159 113 36 34 60 55 54 47 -16 -23 -213
-414 -213 -423 0 -9 95 -7 107 2 5 3 18 26 29 51 142 298 193 391 251 459 33
40 63 53 63 30 0 -7 -20 -33 -44 -59 -50 -54 -69 -105 -56 -151 14 -47 28 -59
75 -59 36 0 49 7 102 55 l60 54 6 -42 c8 -62 36 -81 113 -74 33 2 71 11 85 18
28 16 97 67 120 89 26 25 118 139 130 161 25 48 -7 26 -98 -67 -113 -115 -181
-164 -230 -164 -36 0 -41 12 -22 53 8 17 25 27 61 36 116 30 185 170 100 202
-59 23 -130 -21 -302 -184 -136 -129 -147 -128 -63 8 48 78 55 123 23 155 -11
11 -28 20 -38 20 -10 0 -35 -9 -57 -20 -22 -11 -40 -20 -41 -20 -2 0 24 57 57
126 32 69 59 127 59 130 0 2 -20 4 -45 4 -35 0 -47 -4 -51 -17z m444 -263 c4
-31 -36 -72 -91 -95 l-38 -16 12 23 c14 26 46 74 68 101 20 24 45 17 49 -13z"/>
<path d="M1658 1558 c-32 -25 -27 -75 8 -89 36 -13 74 11 74 48 0 43 -48 67
-82 41z"/>
<path d="M2676 1551 c-36 -40 7 -100 57 -82 35 13 44 37 27 69 -20 34 -59 40
-84 13z"/>
</g>
</svg>
