<?xml version="1.0" standalone="no"?>
<!DOCTYPE svg PUBLIC "-//W3C//DTD SVG 20010904//EN"
 "http://www.w3.org/TR/2001/REC-SVG-20010904/DTD/svg10.dtd">
<svg version="1.0" xmlns="http://www.w3.org/2000/svg"
 width="250.000000pt" height="148.000000pt" viewBox="0 0 250.000000 148.000000"
 preserveAspectRatio="xMidYMid meet">

<g transform="translate(0.000000,148.000000) scale(0.100000,-0.100000)"
fill="#000000" stroke="none">
<path d="M571 827 c-22 -22 -12 -37 24 -37 30 0 35 3 35 24 0 18 -5 24 -24 24
-14 0 -29 -5 -35 -11z"/>
<path d="M670 815 c0 -22 4 -25 35 -25 31 0 35 3 35 25 0 22 -4 25 -35 25 -31
0 -35 -3 -35 -25z"/>
<path d="M780 815 c0 -22 4 -25 35 -25 39 0 48 22 16 40 -33 17 -51 12 -51
-15z"/>
<path d="M900 733 l0 -103 25 0 c23 0 25 4 25 40 l0 41 68 -3 67 -3 3 -37 c3
-31 7 -38 24 -38 19 0 20 5 16 50 -3 27 -1 53 5 59 5 5 6 26 3 45 -8 42 -14
45 -144 48 l-92 3 0 -102z m188 40 c-3 -15 -16 -19 -71 -21 -62 -3 -67 -1 -67
18 0 18 6 20 71 20 62 0 70 -2 67 -17z"/>
<path d="M1863 833 l-103 -4 0 -99 0 -100 105 0 c98 0 105 1 105 20 0 18 -7
20 -80 20 -73 0 -80 2 -80 20 0 18 7 20 55 20 48 0 55 2 55 20 0 18 -7 20 -55
20 -48 0 -55 2 -55 20 0 18 7 20 80 20 79 0 80 0 80 25 0 14 -1 24 -2 23 -2
-1 -49 -4 -105 -5z"/>
<path d="M2000 813 c0 -18 6 -23 25 -23 25 0 25 -1 25 -80 0 -79 0 -80 25 -80
25 0 25 1 25 80 l0 80 50 0 c43 0 50 3 50 19 0 18 -9 20 -100 23 -98 3 -100 3
-100 -19z"/>
<path d="M290 728 c0 -98 0 -98 25 -98 23 0 25 4 25 40 l0 40 80 0 c73 0 80 2
80 20 0 18 -7 20 -80 20 -73 0 -80 2 -80 20 0 19 7 20 95 20 90 0 95 1 95 21
0 20 -4 20 -120 18 l-120 -3 0 -98z"/>
<path d="M1170 810 c0 -15 7 -20 25 -20 25 0 25 -1 25 -80 0 -79 0 -80 25 -80
25 0 25 1 25 80 l0 80 45 0 c38 0 45 3 45 20 0 19 -7 20 -95 20 -88 0 -95 -1
-95 -20z"/>
<path d="M1390 730 l0 -100 25 0 25 0 0 100 0 100 -25 0 -25 0 0 -100z"/>
<path d="M1480 730 l0 -100 25 0 c25 0 25 1 25 80 l0 80 70 0 70 0 0 -80 c0
-79 0 -80 25 -80 25 0 25 1 25 81 0 120 1 119 -130 119 l-110 0 0 -100z"/>
<path d="M593 753 c-48 -6 -46 -39 2 -45 33 -4 35 -2 35 24 0 15 -1 27 -2 26
-2 0 -18 -3 -35 -5z"/>
<path d="M813 753 c-25 -3 -33 -9 -33 -24 0 -15 7 -19 35 -19 31 0 35 3 35 25
0 14 -1 24 -2 23 -2 0 -18 -3 -35 -5z"/>
<path d="M562 655 c2 -14 12 -21 36 -23 28 -3 32 0 32 20 0 20 -5 23 -35 23
-30 0 -35 -3 -33 -20z"/>
<path d="M670 653 c0 -20 5 -23 35 -23 30 0 35 3 35 23 0 19 -5 22 -35 22 -30
0 -35 -3 -35 -22z"/>
<path d="M780 652 c0 -20 4 -23 32 -20 48 4 50 34 4 40 -32 4 -36 2 -36 -20z"/>
</g>
</svg>
