<?xml version="1.0" standalone="no"?>
<!DOCTYPE svg PUBLIC "-//W3C//DTD SVG 20010904//EN"
 "http://www.w3.org/TR/2001/REC-SVG-20010904/DTD/svg10.dtd">
<svg version="1.0" xmlns="http://www.w3.org/2000/svg"
 width="262.000000pt" height="117.000000pt" viewBox="0 0 262.000000 117.000000"
 preserveAspectRatio="xMidYMid meet">

<g transform="translate(0.000000,117.000000) scale(0.100000,-0.100000)"
fill="#000000" stroke="none">
<path d="M803 892 l-83 -3 0 -129 0 -130 25 0 25 0 0 105 c0 122 -4 118 116
112 82 -5 94 -10 94 -41 0 -38 -19 -46 -104 -46 l-81 -1 32 -27 c116 -100 121
-103 157 -100 l36 3 -45 36 -45 37 27 7 c69 17 96 93 53 148 -23 28 -63 34
-207 29z"/>
<path d="M1201 886 c-16 -19 -161 -246 -161 -252 0 -2 13 -4 29 -4 29 0 47 23
147 187 10 16 14 13 38 -25 45 -72 46 -72 -23 -72 -65 0 -67 -1 -51 -31 9 -16
22 -19 85 -19 65 0 74 -2 80 -20 5 -15 15 -20 41 -20 l34 0 -23 38 c-90 141
-141 218 -151 224 -17 12 -32 9 -45 -6z"/>
<path d="M1578 890 c-124 -6 -154 -21 -178 -88 -13 -37 -13 -47 0 -84 10 -27
27 -50 49 -65 30 -20 46 -23 137 -23 92 0 104 2 114 19 5 11 10 21 10 23 0 2
-47 3 -104 3 -90 0 -107 3 -126 20 -32 28 -41 59 -29 94 15 43 61 61 157 61
65 0 81 3 86 17 4 9 3 19 -1 22 -4 3 -56 4 -115 1z"/>
<path d="M1737 892 c-3 -6 -2 -204 2 -244 1 -16 14 -18 131 -18 118 0 130 2
140 19 5 11 10 21 10 23 0 2 -52 2 -115 1 l-115 -2 0 109 c0 61 -3 110 -7 111
-5 0 -16 2 -25 4 -10 2 -19 0 -21 -3z"/>
<path d="M2106 887 c-103 -25 -127 -174 -37 -234 30 -20 47 -23 135 -23 90 0
103 2 114 20 10 17 10 20 -5 21 -10 0 -57 1 -105 2 -81 2 -90 4 -115 30 -25
24 -26 27 -8 28 11 0 60 1 108 2 75 2 91 5 103 21 8 11 14 22 14 25 0 3 -54 5
-120 5 -66 -1 -120 3 -120 7 0 13 38 49 53 50 6 0 47 1 89 1 62 1 81 5 94 20
10 10 14 21 10 25 -10 11 -165 10 -210 0z"/>
<path d="M338 874 c-55 -29 -77 -119 -44 -182 26 -51 60 -62 192 -62 99 0 121
3 149 20 78 48 75 184 -5 225 -40 21 -253 21 -292 -1z m280 -57 c30 -28 29
-78 -2 -114 -24 -27 -27 -28 -124 -28 -86 0 -105 3 -129 21 -51 38 -40 121 21
143 10 4 62 6 115 3 80 -3 100 -7 119 -25z"/>
<path d="M347 458 c-45 -110 -69 -179 -64 -184 9 -10 27 6 37 32 8 20 16 24
55 24 39 0 45 -3 51 -24 6 -24 29 -42 38 -28 7 13 -77 212 -91 212 -7 0 -19
-15 -26 -32z m63 -105 c0 -2 -16 -3 -35 -3 -40 0 -41 4 -18 61 l16 41 19 -48
c10 -27 18 -50 18 -51z"/>
<path d="M890 456 c0 -34 -1 -35 -35 -29 -50 8 -75 -17 -75 -74 0 -67 41 -99
93 -72 16 9 22 9 25 0 2 -6 8 -9 13 -5 5 3 9 52 9 110 0 86 -3 104 -15 104
-10 0 -15 -10 -15 -34z m-12 -58 c17 -17 15 -73 -2 -88 -8 -6 -25 -10 -38 -8
-19 2 -24 10 -26 41 -5 57 33 88 66 55z"/>
<path d="M514 423 c-41 -29 -41 -112 1 -139 27 -17 76 -15 83 4 2 8 -8 12 -32
12 -37 0 -56 20 -56 58 0 30 35 55 66 48 19 -5 25 -3 22 6 -5 15 -67 22 -84
11z"/>
<path d="M640 416 c-10 -13 -5 -15 31 -13 34 2 44 -2 47 -15 3 -15 -3 -18 -32
-18 -38 0 -66 -21 -66 -50 0 -41 59 -66 89 -37 11 10 14 9 18 -1 10 -27 23 2
23 54 0 76 -11 94 -59 94 -21 0 -44 -6 -51 -14z m80 -79 c0 -18 -21 -37 -41
-37 -22 0 -31 13 -23 34 7 20 64 22 64 3z"/>
<path d="M966 408 c-24 -33 -20 -93 6 -118 31 -28 108 -26 108 4 0 8 -14 10
-41 8 -28 -3 -44 0 -50 9 -16 25 -10 29 41 29 49 0 50 1 50 29 0 39 -24 61
-65 61 -24 0 -39 -7 -49 -22z m84 -18 c13 -24 15 -22 -32 -25 -39 -2 -49 10
-26 33 18 18 46 14 58 -8z"/>
<path d="M1120 428 c-1 -2 -2 -35 -4 -75 -2 -53 1 -74 11 -77 10 -4 13 8 13
47 0 57 7 74 30 77 35 5 39 -1 42 -60 3 -68 22 -86 26 -25 4 62 10 82 28 89
29 11 44 -13 44 -70 0 -41 4 -54 15 -54 12 0 15 13 15 56 0 30 -5 64 -10 75
-12 21 -50 25 -80 9 -13 -7 -21 -7 -25 0 -9 14 -58 13 -73 -2 -9 -9 -12 -9
-12 0 0 10 -19 18 -20 10z"/>
<path d="M1381 344 c29 -80 31 -88 16 -99 -19 -13 -23 -35 -7 -35 23 0 49 43
78 129 26 78 29 92 15 89 -11 -2 -24 -26 -36 -68 l-20 -65 -22 65 c-14 41 -28
66 -38 68 -15 3 -12 -10 14 -84z"/>
</g>
</svg>
