<?xml version="1.0" standalone="no"?>
<!DOCTYPE svg PUBLIC "-//W3C//DTD SVG 20010904//EN"
 "http://www.w3.org/TR/2001/REC-SVG-20010904/DTD/svg10.dtd">
<svg version="1.0" xmlns="http://www.w3.org/2000/svg"
 width="594.000000pt" height="420.000000pt" viewBox="0 0 594.000000 420.000000"
 preserveAspectRatio="xMidYMid meet">

<g transform="translate(0.000000,420.000000) scale(0.100000,-0.100000)"
fill="#000000" stroke="none">
<path d="M2420 3351 c0 -6 5 -13 10 -16 16 -10 11 -25 -9 -25 -10 0 -24 -6
-31 -14 -9 -12 -5 -16 27 -21 21 -3 46 -8 55 -10 10 -1 22 3 29 11 8 10 3 21
-24 49 -33 34 -57 45 -57 26z"/>
<path d="M2290 3269 c0 -5 5 -7 10 -4 6 3 10 8 10 11 0 2 -4 4 -10 4 -5 0 -10
-5 -10 -11z"/>
<path d="M2546 3272 c-3 -4 4 -9 15 -9 23 -2 25 3 4 10 -8 4 -16 3 -19 -1z"/>
<path d="M2268 3265 c-3 -3 -18 -8 -33 -11 -16 -3 -40 -14 -55 -24 -15 -11
-30 -17 -34 -13 -3 3 -6 1 -6 -6 0 -8 -6 -11 -16 -7 -8 3 -13 2 -11 -2 3 -4
-1 -13 -9 -20 -8 -7 -14 -10 -14 -7 0 3 -10 -3 -22 -14 -11 -11 -26 -18 -31
-14 -6 4 -7 1 -2 -7 6 -10 4 -12 -9 -7 -11 4 -15 3 -10 -4 4 -6 -10 -26 -30
-45 -20 -18 -37 -37 -37 -41 -1 -5 -5 -7 -10 -6 -4 2 -5 -5 -2 -14 5 -12 3
-14 -7 -8 -8 5 -11 4 -6 -3 3 -6 -4 -27 -16 -47 -19 -34 -23 -36 -34 -20 -12
16 -13 16 -11 -3 0 -11 5 -18 9 -16 12 7 10 -24 -3 -48 -6 -11 -13 -32 -15
-46 -6 -33 -24 -45 -43 -29 -8 7 -6 -1 5 -18 19 -27 20 -35 10 -85 -12 -60
-10 -110 5 -110 5 0 9 11 9 24 0 50 52 179 107 266 32 50 63 100 69 111 6 10
14 16 19 11 5 -4 5 -1 1 6 -17 30 96 147 193 198 53 29 71 44 52 44 -7 0 -9 5
-6 10 7 11 2 14 -7 5z"/>
<path d="M2509 3253 c-13 -16 -12 -17 4 -4 9 7 17 15 17 17 0 8 -8 3 -21 -13z"/>
<path d="M2616 3254 c-8 -22 0 -31 32 -39 31 -7 72 -38 72 -54 0 -6 7 -7 17
-4 10 4 14 2 10 -4 -4 -6 3 -13 14 -16 12 -3 18 -10 14 -16 -3 -6 0 -11 7 -11
16 0 59 -50 52 -62 -3 -4 -1 -7 4 -6 5 2 21 -12 36 -29 33 -39 70 -44 87 -10
6 12 8 19 4 15 -4 -4 -16 4 -27 18 -17 21 -18 27 -6 42 11 15 11 16 -3 5 -16
-13 -29 -8 -29 9 0 5 5 6 12 2 7 -5 8 -3 4 5 -5 7 -14 10 -22 7 -7 -3 -16 0
-20 6 -4 7 -3 8 4 4 7 -4 12 -2 12 3 0 6 -8 11 -18 11 -23 0 -55 33 -45 45 5
4 2 5 -4 1 -7 -4 -13 -2 -13 3 0 6 -7 11 -15 11 -8 0 -38 14 -67 31 -29 17
-60 33 -70 34 -10 2 -22 6 -27 9 -5 3 -12 -1 -15 -10z"/>
<path d="M2270 3207 c-30 -30 -63 -63 -72 -75 -18 -23 -24 -46 -10 -40 4 2 24
10 45 18 20 8 37 18 37 23 0 4 5 5 12 1 6 -4 8 -3 5 3 -3 5 6 25 22 44 36 44
46 70 24 62 -11 -4 -14 -2 -9 5 13 21 2 13 -54 -41z"/>
<path d="M2476 3220 c13 -50 24 -70 39 -70 8 0 15 8 15 18 0 23 -29 64 -40 57
-4 -3 -11 1 -14 7 -3 7 -3 2 0 -12z"/>
<path d="M2557 3234 c-4 -4 3 -20 14 -35 11 -16 17 -34 14 -39 -4 -6 -3 -10 2
-9 4 1 25 -5 45 -14 74 -33 77 -17 9 53 -46 47 -69 59 -84 44z"/>
<path d="M2375 3200 c-20 -38 -19 -50 4 -50 20 0 42 44 34 68 -7 20 -22 14
-38 -18z"/>
<path d="M2165 3140 c-3 -6 1 -7 9 -4 18 7 21 14 7 14 -6 0 -13 -4 -16 -10z"/>
<path d="M2403 3055 c0 -8 4 -12 9 -9 5 3 6 10 3 15 -9 13 -12 11 -12 -6z"/>
<path d="M2086 3048 c3 -4 11 -5 19 -1 21 7 19 12 -4 10 -11 0 -18 -5 -15 -9z"/>
<path d="M2436 3035 c4 -8 8 -15 10 -15 2 0 4 7 4 15 0 8 -4 15 -10 15 -5 0
-7 -7 -4 -15z"/>
<path d="M2185 3020 c-3 -5 -1 -10 4 -10 6 0 11 5 11 10 0 6 -2 10 -4 10 -3 0
-8 -4 -11 -10z"/>
<path d="M2266 3007 c3 -10 9 -15 12 -12 3 3 0 11 -7 18 -10 9 -11 8 -5 -6z"/>
<path d="M2321 2987 c-8 -10 -7 -14 2 -14 8 0 14 6 14 14 0 7 -1 13 -2 13 -2
0 -8 -6 -14 -13z"/>
<path d="M2133 2978 c-11 -19 -13 -39 -1 -32 5 3 7 9 4 12 -3 3 -1 11 5 19 6
7 9 13 6 13 -3 0 -9 -6 -14 -12z"/>
<path d="M2445 2969 c-11 -16 -1 -19 13 -3 7 8 8 14 3 14 -5 0 -13 -5 -16 -11z"/>
<path d="M2016 2871 c-14 -15 -15 -21 -4 -27 7 -4 10 -3 5 1 -4 5 0 17 10 27
9 10 14 18 11 18 -3 0 -13 -9 -22 -19z"/>
<path d="M3150 2860 c8 -5 20 -10 25 -10 6 0 3 5 -5 10 -8 5 -19 10 -25 10 -5
0 -3 -5 5 -10z"/>
<path d="M4040 2846 c0 -2 8 -10 18 -17 15 -13 16 -12 3 4 -13 16 -21 21 -21
13z"/>
<path d="M1976 2822 c-3 -5 1 -9 9 -9 8 0 12 4 9 9 -3 4 -7 8 -9 8 -2 0 -6 -4
-9 -8z"/>
<path d="M4269 2828 c-5 -18 -6 -38 -1 -34 7 8 12 36 6 36 -2 0 -4 -1 -5 -2z"/>
<path d="M3691 2811 c-11 -7 -9 -10 8 -16 13 -4 25 -4 28 -1 4 3 -2 6 -13 6
-16 0 -17 2 -4 10 8 5 11 10 5 10 -5 0 -16 -4 -24 -9z"/>
<path d="M2346 2802 c-3 -5 1 -9 9 -9 8 0 12 4 9 9 -3 4 -7 8 -9 8 -2 0 -6 -4
-9 -8z"/>
<path d="M4125 2800 c-3 -5 -1 -10 4 -10 6 0 11 5 11 10 0 6 -2 10 -4 10 -3 0
-8 -4 -11 -10z"/>
<path d="M1985 2791 c-3 -5 -2 -12 3 -15 5 -3 9 1 9 9 0 17 -3 19 -12 6z"/>
<path d="M3895 2791 c-3 -5 -2 -12 3 -15 5 -3 9 1 9 9 0 17 -3 19 -12 6z"/>
<path d="M4140 2781 c-8 -6 -19 -7 -25 -4 -5 4 -7 3 -3 -2 4 -4 3 -14 -3 -21
-8 -9 -7 -18 1 -31 10 -16 10 -16 5 3 -4 16 2 27 22 43 28 21 30 29 3 12z"/>
<path d="M2308 2773 c7 -3 16 -2 19 1 4 3 -2 6 -13 5 -11 0 -14 -3 -6 -6z"/>
<path d="M2345 2769 c-4 -6 -5 -12 -2 -15 2 -3 7 2 10 11 7 17 1 20 -8 4z"/>
<path d="M3209 2763 c-13 -16 -12 -17 4 -4 9 7 17 15 17 17 0 8 -8 3 -21 -13z"/>
<path d="M3647 2749 c7 -7 15 -10 18 -7 3 3 -2 9 -12 12 -14 6 -15 5 -6 -5z"/>
<path d="M2286 2737 c3 -10 9 -15 12 -12 3 3 0 11 -7 18 -10 9 -11 8 -5 -6z"/>
<path d="M2397 2739 c7 -7 15 -10 18 -7 3 3 -2 9 -12 12 -14 6 -15 5 -6 -5z"/>
<path d="M2890 2743 c0 -15 18 -35 23 -27 3 5 -1 15 -9 22 -8 7 -14 9 -14 5z"/>
<path d="M2649 2738 c-5 -18 -6 -38 -1 -34 7 8 12 36 6 36 -2 0 -4 -1 -5 -2z"/>
<path d="M3765 2730 c3 -5 8 -10 11 -10 2 0 4 5 4 10 0 6 -5 10 -11 10 -5 0
-7 -4 -4 -10z"/>
<path d="M3029 2723 c0 -5 -2 -16 -4 -26 -2 -11 -1 -16 3 -13 8 8 14 46 7 46
-3 0 -5 -3 -6 -7z"/>
<path d="M2310 2716 c0 -2 7 -7 16 -10 8 -3 12 -2 9 4 -6 10 -25 14 -25 6z"/>
<path d="M3495 2712 c3 -3 0 -11 -6 -18 -7 -9 -6 -14 3 -20 7 -4 10 -3 5 1 -4
5 0 16 8 25 13 15 13 17 0 17 -8 0 -13 -3 -10 -5z"/>
<path d="M4226 2692 c-3 -5 1 -9 9 -9 8 0 12 4 9 9 -3 4 -7 8 -9 8 -2 0 -6 -4
-9 -8z"/>
<path d="M3729 2663 c-1 -5 -1 -12 0 -17 1 -5 -5 -6 -14 -2 -10 3 -14 2 -10
-5 9 -14 28 -6 31 14 1 9 0 17 -2 17 -2 0 -5 -3 -5 -7z"/>
<path d="M3756 2662 c-3 -5 1 -9 9 -9 8 0 12 4 9 9 -3 4 -7 8 -9 8 -2 0 -6 -4
-9 -8z"/>
<path d="M2739 2623 c-13 -16 -12 -17 4 -4 16 13 21 21 13 21 -2 0 -10 -8 -17
-17z"/>
<path d="M2240 2620 c-9 -6 -10 -10 -3 -10 6 0 15 5 18 10 8 12 4 12 -15 0z"/>
<path d="M1987 2595 c-6 -15 10 -32 20 -21 4 3 1 6 -5 6 -6 0 -9 7 -6 15 4 8
4 15 1 15 -3 0 -7 -7 -10 -15z"/>
<path d="M4005 2591 c-3 -5 -2 -12 3 -15 5 -3 9 1 9 9 0 17 -3 19 -12 6z"/>
<path d="M2315 2581 c-3 -5 -2 -12 3 -15 5 -3 9 1 9 9 0 17 -3 19 -12 6z"/>
<path d="M2358 2573 c6 -2 10 -9 6 -14 -3 -5 0 -9 5 -9 6 0 11 7 11 15 0 8 -8
15 -17 14 -11 0 -13 -3 -5 -6z"/>
<path d="M2848 2573 c7 -3 16 -2 19 1 4 3 -2 6 -13 5 -11 0 -14 -3 -6 -6z"/>
<path d="M2303 2553 c4 -6 2 -13 -5 -15 -8 -3 -6 -6 4 -10 17 -7 19 15 3 29
-4 4 -5 3 -2 -4z"/>
<path d="M3262 2555 c4 -4 -4 -23 -19 -41 -14 -19 -21 -34 -17 -34 5 1 19 16
31 35 16 25 18 36 10 41 -7 4 -9 4 -5 -1z"/>
<path d="M2572 2530 c7 -14 12 -28 13 -32 0 -3 3 -9 7 -13 14 -14 2 23 -15 46
l-18 24 13 -25z"/>
<path d="M2360 2529 c0 -5 5 -7 10 -4 6 3 10 8 10 11 0 2 -4 4 -10 4 -5 0 -10
-5 -10 -11z"/>
<path d="M3796 2502 l-19 -27 24 22 c12 12 21 24 18 27 -2 2 -13 -8 -23 -22z"/>
<path d="M3095 2509 c-4 -6 -5 -12 -2 -15 2 -3 7 2 10 11 7 17 1 20 -8 4z"/>
<path d="M1806 2487 c3 -10 9 -15 12 -12 3 3 0 11 -7 18 -10 9 -11 8 -5 -6z"/>
<path d="M3871 2491 c-8 -5 -9 -11 -3 -15 5 -3 12 1 16 9 6 17 6 18 -13 6z"/>
<path d="M2915 2480 c-3 -6 1 -7 9 -4 18 7 21 14 7 14 -6 0 -13 -4 -16 -10z"/>
<path d="M3617 2479 c7 -7 15 -10 18 -7 3 3 -2 9 -12 12 -14 6 -15 5 -6 -5z"/>
<path d="M2571 2473 c-1 -17 16 -25 25 -12 4 7 3 9 -4 5 -5 -3 -13 0 -15 6 -4
9 -6 10 -6 1z"/>
<path d="M3745 2471 c-3 -5 -2 -12 3 -15 5 -3 9 1 9 9 0 17 -3 19 -12 6z"/>
<path d="M2180 2449 c0 -5 5 -7 10 -4 6 3 10 8 10 11 0 2 -4 4 -10 4 -5 0 -10
-5 -10 -11z"/>
<path d="M3140 2456 c0 -2 8 -10 18 -17 15 -13 16 -12 3 4 -13 16 -21 21 -21
13z"/>
<path d="M3875 2451 c-3 -5 -2 -12 3 -15 5 -3 9 1 9 9 0 17 -3 19 -12 6z"/>
<path d="M2501 2443 c-1 -17 16 -25 25 -12 4 7 3 9 -4 5 -5 -3 -13 0 -15 6 -4
9 -6 10 -6 1z"/>
<path d="M3655 2420 c-3 -6 1 -7 9 -4 18 7 21 14 7 14 -6 0 -13 -4 -16 -10z"/>
<path d="M3920 2421 c0 -6 4 -13 10 -16 6 -3 7 1 4 9 -7 18 -14 21 -14 7z"/>
<path d="M1960 2416 c0 -2 8 -10 18 -17 15 -13 16 -12 3 4 -13 16 -21 21 -21
13z"/>
<path d="M2939 2393 c-13 -16 -12 -17 4 -4 16 13 21 21 13 21 -2 0 -10 -8 -17
-17z"/>
<path d="M2073 2335 c0 -6 13 -11 28 -11 15 0 26 3 23 7 -2 5 -12 5 -21 2 -10
-4 -14 -2 -10 4 3 5 0 10 -7 10 -7 0 -13 -6 -13 -12z"/>
<path d="M2901 2316 l-24 -31 28 27 c16 15 27 29 24 31 -2 3 -15 -10 -28 -27z"/>
<path d="M2936 2323 c-6 -14 -5 -15 5 -6 7 7 10 15 7 18 -3 3 -9 -2 -12 -12z"/>
<path d="M2997 2295 c-20 -29 -101 -111 -115 -117 -4 -1 -20 -15 -36 -30 l-29
-28 747 0 747 0 24 26 c34 37 34 102 1 141 l-24 28 -647 5 -647 5 -21 -30z
m120 -36 l27 -41 20 36 c22 37 41 50 57 40 5 -3 9 -36 9 -75 0 -62 -2 -69 -20
-69 -16 0 -20 7 -20 33 l0 32 -24 -30 c-13 -16 -26 -28 -28 -25 -3 3 -12 16
-21 30 l-17 24 0 -32 c0 -25 -4 -32 -20 -32 -18 0 -20 7 -20 75 0 89 15 98 57
34z m238 21 c0 -10 -12 -16 -38 -18 -43 -4 -40 -22 4 -22 19 0 29 -5 29 -15 0
-10 -10 -15 -30 -15 -20 0 -30 -5 -30 -15 0 -10 11 -15 35 -15 25 0 35 -4 35
-15 0 -13 -11 -15 -57 -13 l-58 3 -3 59 c-4 84 -2 88 60 84 39 -2 53 -7 53
-18z m120 8 c19 -9 25 -19 25 -44 0 -18 -5 -36 -10 -39 -7 -4 -7 -12 0 -25 14
-26 13 -30 -10 -30 -11 0 -25 9 -32 20 -7 11 -16 20 -19 20 -4 0 -9 -9 -12
-20 -3 -12 -14 -20 -26 -20 -19 0 -21 6 -21 68 0 38 3 72 7 75 10 11 70 8 98
-5z m171 -2 c25 -19 11 -31 -34 -31 -32 0 -37 -3 -40 -26 -4 -32 20 -54 45
-41 22 12 43 5 43 -14 0 -15 -43 -30 -75 -25 -28 3 -65 47 -65 77 0 56 79 94
126 60z m154 -51 c17 -36 30 -70 30 -75 0 -16 -37 -11 -44 5 -3 9 -18 15 -35
15 -16 0 -31 -6 -35 -15 -3 -8 -15 -15 -27 -15 -13 0 -19 5 -16 13 65 162 82
171 127 72z m184 34 l20 -24 27 28 c49 48 122 28 135 -38 16 -86 -112 -120
-154 -41 -9 19 -10 19 -16 -1 -9 -29 -46 -45 -97 -41 l-44 3 -3 59 c-4 85 -1
89 60 84 39 -4 57 -12 72 -29z m305 22 c21 -13 4 -31 -30 -31 -16 0 -29 -4
-29 -10 0 -5 9 -10 19 -10 10 0 29 -8 41 -18 47 -38 -9 -88 -78 -70 -45 12
-36 34 12 30 48 -4 46 11 -4 31 -44 17 -51 38 -23 69 17 19 68 24 92 9z"/>
<path d="M3417 2240 c7 -25 36 -23 41 3 3 12 -3 17 -21 17 -20 0 -24 -4 -20
-20z"/>
<path d="M3740 2225 c0 -8 7 -15 15 -15 9 0 12 6 9 15 -4 8 -10 15 -15 15 -5
0 -9 -7 -9 -15z"/>
<path d="M3888 2224 c4 -33 6 -35 36 -32 55 5 43 68 -13 68 -25 0 -27 -3 -23
-36z"/>
<path d="M4056 2245 c-10 -28 -7 -44 13 -55 31 -16 53 -2 49 34 -2 25 -8 32
-29 34 -17 2 -29 -3 -33 -13z"/>
<path d="M2830 2250 c-8 -5 -10 -10 -5 -10 6 0 17 5 25 10 8 5 11 10 5 10 -5
0 -17 -5 -25 -10z"/>
<path d="M2840 2230 c-9 -6 -10 -10 -3 -10 6 0 15 5 18 10 8 12 4 12 -15 0z"/>
<path d="M2006 2182 c-3 -4 4 -9 15 -9 23 -2 25 3 4 10 -8 4 -16 3 -19 -1z"/>
<path d="M2704 2146 c1 -8 5 -18 8 -22 4 -3 5 1 4 10 -1 8 -5 18 -8 22 -4 3
-5 -1 -4 -10z"/>
<path d="M2730 2111 c0 -7 -4 -10 -9 -7 -11 7 -9 -21 2 -29 4 -3 5 -2 2 2 -3
3 0 12 7 20 6 7 8 16 4 20 -3 3 -6 1 -6 -6z"/>
<path d="M2763 2103 c0 -9 6 -9 21 -1 30 15 30 16 3 14 -13 0 -24 -6 -24 -13z"/>
<path d="M2165 2080 c-3 -6 1 -7 9 -4 18 7 21 14 7 14 -6 0 -13 -4 -16 -10z"/>
<path d="M2211 2068 c12 -23 20 -23 12 -1 -4 9 -2 14 3 10 6 -3 16 -2 23 3 9
5 3 7 -17 7 -26 -2 -29 -4 -21 -19z"/>
<path d="M2476 2082 c-3 -5 1 -9 9 -9 8 0 12 4 9 9 -3 4 -7 8 -9 8 -2 0 -6 -4
-9 -8z"/>
<path d="M2020 2031 c-44 -14 -68 -34 -85 -71 -14 -31 -15 -105 -13 -635 l3
-600 132 -3 c218 -4 243 17 243 216 l0 122 178 0 178 0 84 -107 c130 -164 177
-211 218 -223 50 -13 900 -13 1017 1 262 30 385 145 385 358 0 124 -37 201
-127 264 l-44 31 35 18 c48 25 102 92 122 151 12 36 15 73 12 136 -8 176 -92
272 -284 326 -48 14 -126 18 -421 22 -207 3 -363 2 -363 -3 1 -5 21 -24 45
-42 100 -73 169 -193 195 -336 22 -128 9 -286 -31 -370 -12 -25 -19 -62 -19
-98 l0 -58 105 0 105 0 0 60 0 60 101 0 c74 0 111 -5 136 -17 68 -32 93 -114
52 -167 -42 -54 -48 -55 -450 -62 l-374 -7 -42 51 c-46 55 -50 62 -30 62 27 0
157 70 198 107 53 47 101 122 124 191 13 42 16 77 13 160 -3 97 -7 114 -37
176 -81 167 -253 264 -508 287 -110 10 -114 10 -178 -16 -178 -71 -366 -71
-535 0 -60 25 -95 29 -140 16z m1936 -310 c50 -23 74 -55 74 -99 0 -84 -55
-111 -222 -112 l-118 0 0 115 0 115 113 0 c88 0 121 -4 153 -19z m-1010 -45
c73 -46 98 -144 52 -208 -44 -63 -70 -68 -400 -68 l-298 0 0 143 c0 79 3 147
7 151 4 4 143 6 308 4 276 -3 302 -5 331 -22z"/>
</g>
</svg>
