<?xml version="1.0" standalone="no"?>
<!DOCTYPE svg PUBLIC "-//W3C//DTD SVG 20010904//EN"
 "http://www.w3.org/TR/2001/REC-SVG-20010904/DTD/svg10.dtd">
<svg version="1.0" xmlns="http://www.w3.org/2000/svg"
 width="500.000000pt" height="500.000000pt" viewBox="0 0 500.000000 500.000000"
 preserveAspectRatio="xMidYMid meet">

<g transform="translate(0.000000,500.000000) scale(0.100000,-0.100000)"
fill="#000000" stroke="none">
<path d="M2325 4215 c-36 -37 -32 -63 20 -111 25 -22 45 -46 45 -51 0 -6 -21
-24 -47 -39 -26 -15 -68 -47 -93 -70 l-46 -43 -23 48 c-29 61 -82 116 -143
147 -49 25 -98 32 -98 14 0 -5 -9 -10 -20 -10 -11 0 -20 -5 -20 -11 0 -6 -7
-8 -16 -5 -9 3 -27 9 -41 13 -23 5 -25 3 -20 -17 5 -19 3 -21 -16 -15 -12 3
-41 9 -65 12 -35 5 -41 3 -37 -9 4 -9 18 -20 33 -27 25 -10 26 -10 8 4 -11 8
-18 17 -15 19 4 5 97 -16 134 -29 14 -5 11 1 -10 18 -38 32 -31 39 20 21 24
-8 41 -10 43 -4 2 6 8 10 14 10 6 0 16 7 23 16 10 14 17 15 48 5 78 -26 133
-83 180 -185 16 -34 16 -38 2 -32 -9 3 -13 2 -10 -3 3 -5 -3 -12 -12 -14 -11
-3 -5 -5 12 -6 l29 -1 -55 -57 c-89 -95 -109 -124 -25 -40 42 42 79 77 82 77
3 0 3 -30 0 -67 -6 -72 -2 -75 9 -8 6 34 9 37 16 20 8 -17 8 -16 3 5 -3 14 -8
36 -11 50 l-5 25 24 -25 c58 -61 118 -144 119 -163 0 -20 37 -110 38 -96 1 4
-6 26 -14 49 -16 47 -15 59 4 36 20 -24 26 -96 10 -107 -21 -13 -29 -11 -29 7
0 11 -6 14 -20 9 -15 -5 -20 -2 -20 13 0 11 -7 22 -15 26 -8 3 -15 14 -15 24
0 25 -45 66 -64 59 -20 -8 -20 -16 -1 -58 l15 -34 -6 43 c-4 25 -3 42 3 42 17
0 34 -26 40 -64 3 -21 11 -36 19 -36 8 0 14 -7 14 -15 0 -8 7 -15 16 -15 13 0
15 -6 9 -27 -14 -54 -17 -133 -6 -133 7 0 9 13 5 39 -7 47 6 75 49 101 38 24
80 26 97 5 6 -8 17 -13 23 -12 6 1 12 -7 14 -18 3 -17 2 -17 -6 -5 -9 13 -11
12 -9 -5 1 -11 -1 -40 -6 -65 -4 -28 -3 -56 3 -73 15 -38 -1 -66 -42 -74 -18
-4 -34 -7 -37 -6 -3 1 -14 4 -25 8 -20 7 -20 6 -1 -9 30 -24 73 -20 102 9 38
38 54 19 54 -61 0 -38 4 -64 11 -64 5 0 7 -4 4 -10 -3 -5 -2 -10 3 -10 15 0 2
-39 -18 -53 -9 -7 -18 -16 -18 -22 -2 -15 -50 -18 -82 -5 -40 16 -77 59 -88
103 -6 20 -7 35 -2 32 4 -3 6 13 3 35 -4 30 -1 45 12 60 10 12 13 20 7 20 -7
0 -12 5 -12 11 0 6 -10 23 -22 37 -15 19 -19 21 -13 7 5 -11 9 -63 10 -115 0
-105 14 -144 62 -178 35 -24 100 -45 118 -38 9 3 16 -5 21 -27 13 -61 43 -105
89 -133 40 -23 54 -26 114 -22 l69 4 11 -33 c17 -47 74 -83 131 -83 25 0 51 4
59 9 10 7 23 2 43 -14 87 -74 213 -17 213 96 0 38 -6 55 -34 89 -26 33 -32 47
-26 68 19 74 17 106 -10 148 -15 22 -40 49 -56 60 -19 12 -27 24 -23 34 24 57
27 94 10 145 -9 28 -26 63 -39 76 -21 23 -21 26 -8 67 11 35 12 51 1 85 -14
48 -74 111 -115 121 -15 4 -51 31 -79 61 -38 40 -61 55 -90 61 -47 8 -100 -8
-138 -44 -23 -21 -31 -23 -55 -14 -15 6 -48 13 -72 15 -82 10 -94 42 -72 205
12 91 28 112 88 112 36 0 50 6 74 29 34 35 41 68 10 51 -30 -16 -92 -12 -161
10 -87 28 -133 26 -165 -5z m178 -82 c-7 -2 -19 -2 -25 0 -7 3 -2 5 12 5 14 0
19 -2 13 -5z m-44 -7 c-14 -12 -69 -35 -69 -29 0 10 39 30 59 32 8 0 12 -1 10
-3z m-52 -188 c6 -29 16 -73 23 -98 12 -46 7 -90 -10 -90 -21 0 -170 106 -170
120 0 9 7 26 16 39 17 24 100 81 119 81 6 0 16 -24 22 -52z m456 -121 c42 -24
72 -75 62 -106 -8 -26 -46 -28 -98 -6 -47 19 -81 19 -124 -1 -84 -40 -63 69
25 128 32 22 78 17 135 -15z m-561 -4 c2 -5 29 -25 61 -46 48 -31 57 -42 57
-67 0 -48 -16 -43 -63 18 -25 32 -52 64 -61 71 -9 7 -16 17 -16 22 0 11 17 12
22 2z m319 -54 c18 -9 33 -89 19 -103 -12 -12 -52 0 -84 25 -31 24 -60 75 -51
90 7 11 88 3 116 -12z m-141 -29 c0 -5 -4 -10 -10 -10 -5 0 -10 5 -10 10 0 6
5 10 10 10 6 0 10 -4 10 -10z m536 -26 c19 -9 42 -31 51 -48 19 -37 21 -109 3
-131 -10 -12 -10 -15 1 -15 12 0 12 -2 1 -9 -8 -4 -13 -12 -12 -17 3 -22 -38
-13 -54 11 -9 14 -28 30 -41 35 -17 7 -26 20 -31 47 -3 21 -13 48 -20 60 -13
20 -12 25 6 43 11 11 20 25 20 30 0 15 38 12 76 -6z m-537 -8 c6 -7 8 -21 5
-30 -4 -11 1 -22 12 -31 11 -8 15 -15 10 -15 -5 0 -4 -6 2 -13 7 -9 8 -23 3
-43 -5 -16 -10 -24 -10 -17 -1 7 -13 18 -28 25 -29 14 -30 19 -25 111 2 30 13
35 31 13z m333 2 c22 -6 42 -18 45 -25 3 -7 11 -13 17 -13 16 0 38 -48 30 -62
-4 -6 -2 -8 4 -4 14 8 13 -51 -1 -79 -18 -36 -60 -64 -105 -71 -41 -6 -45 -4
-81 35 -22 24 -51 43 -69 47 -18 4 -29 10 -27 15 3 4 1 10 -5 14 -5 3 -10 12
-10 18 0 7 4 6 10 -3 8 -11 9 -8 5 11 -11 44 74 125 134 128 7 1 32 -4 53 -11z
m-292 -48 c0 -5 -2 -10 -4 -10 -3 0 -8 5 -11 10 -3 6 -1 10 4 10 6 0 11 -4 11
-10z m86 -57 c-3 -8 -6 -26 -6 -39 0 -15 -6 -24 -15 -24 -11 0 -15 11 -15 38
0 21 3 41 6 45 11 11 35 -5 30 -20z m-66 -33 c0 -5 -4 -10 -10 -10 -5 0 -10 5
-10 10 0 6 5 10 10 10 6 0 10 -4 10 -10z m469 -109 l-2 -26 -4 25 c-3 14 -9
30 -15 35 -8 7 -9 4 -4 -8 3 -10 6 -37 6 -60 l0 -42 22 37 c27 47 63 68 82 47
35 -37 37 -156 4 -197 -11 -13 -10 -15 5 -9 26 10 21 -16 -8 -43 -14 -13 -27
-22 -28 -19 -2 2 -19 32 -37 66 -30 58 -31 64 -18 85 8 13 18 37 22 53 6 28 5
29 -9 11 -8 -11 -15 -28 -15 -39 0 -10 -4 -15 -10 -12 -5 3 -10 1 -10 -4 0
-24 -41 -51 -77 -51 -29 0 -44 8 -73 38 -20 20 -48 45 -63 55 -36 24 -34 37 7
37 49 0 101 25 132 64 l28 34 33 -25 c24 -18 33 -33 32 -52z m-347 58 c46 -25
66 -58 62 -102 -3 -37 -2 -38 5 -12 8 29 9 29 11 5 9 -98 -61 -157 -142 -119
-66 30 -105 153 -63 200 35 37 87 49 127 28z m144 -155 c15 -10 23 -23 19 -32
-3 -9 0 -12 9 -9 20 8 44 -39 28 -55 -7 -7 -12 -17 -12 -22 0 -6 5 -4 10 4 8
13 10 12 10 -2 0 -10 -6 -18 -13 -18 -17 0 -53 -38 -44 -46 3 -3 12 3 19 15 7
12 19 21 26 21 17 0 -37 -68 -55 -69 -6 -1 -13 -6 -15 -12 -2 -6 -26 -13 -52
-16 -83 -10 -153 46 -161 127 l-4 39 37 -13 c24 -8 48 -10 69 -4 34 9 83 63
83 91 0 21 14 21 46 1z m336 -26 c-9 -9 -12 -7 -12 12 0 19 3 21 12 12 9 -9 9
-15 0 -24z m-6 -44 c-4 -9 -9 -15 -11 -12 -3 3 -3 13 1 22 4 9 9 15 11 12 3
-3 3 -13 -1 -22z m-124 -30 c7 -26 18 -49 25 -51 9 -4 10 -10 2 -25 -9 -16 -8
-19 1 -13 10 6 11 -1 6 -26 -3 -19 -7 -40 -8 -47 -1 -7 -21 -30 -44 -52 -61
-57 -124 -53 -124 7 0 12 -7 38 -16 57 -16 33 -16 36 5 69 11 19 21 50 21 69
0 31 3 35 38 45 73 20 81 18 94 -33z m149 -67 c14 -12 29 -32 33 -44 4 -13 11
-23 16 -23 16 0 21 -52 7 -74 -8 -11 -13 -30 -11 -41 4 -25 -13 -45 -38 -45
-10 0 -17 -4 -14 -9 3 -5 -1 -14 -9 -21 -19 -16 -38 -1 -56 43 -7 18 -21 42
-33 55 -17 20 -19 26 -7 44 7 11 14 39 16 62 2 30 8 44 24 51 11 5 21 13 21
17 0 15 25 8 51 -15z m-446 -80 c33 0 74 4 91 8 30 7 31 6 39 -37 16 -89 15
-119 -8 -154 -60 -92 -219 -60 -241 48 -3 17 -10 27 -16 23 -6 -4 -9 -3 -8 2
1 4 -1 18 -6 30 -11 33 39 97 68 87 12 -4 48 -7 81 -7z m337 -97 c7 -16 17
-30 22 -30 4 0 6 -9 3 -20 -3 -13 -1 -18 6 -13 6 4 8 0 4 -10 -3 -10 -2 -17 3
-17 5 0 7 -7 4 -15 -7 -17 11 -21 21 -5 3 6 14 10 24 10 9 0 27 9 40 21 27 26
49 18 64 -21 6 -17 15 -30 19 -30 4 0 8 -20 8 -45 0 -41 -3 -47 -46 -80 -54
-40 -76 -43 -121 -15 -38 23 -40 33 -13 67 25 32 26 63 3 63 -14 0 -15 -2 -4
-9 9 -6 10 -11 2 -15 -6 -4 -15 3 -20 16 -7 15 -10 18 -10 7 -1 -10 -17 -31
-36 -48 -41 -36 -42 -39 -12 -37 13 1 21 7 19 15 -3 16 27 53 38 46 15 -9 3
-39 -22 -58 -36 -27 -98 -33 -137 -12 -18 9 -30 19 -27 22 3 3 -6 19 -20 36
-14 17 -23 37 -21 46 3 9 11 32 18 51 6 19 14 41 15 48 3 8 11 11 23 7 23 -7
97 21 105 41 9 24 34 16 48 -16z"/>
<path d="M2744 3814 c-18 -14 -18 -14 6 -3 31 14 36 19 24 19 -6 0 -19 -7 -30
-16z"/>
<path d="M3041 3646 c7 -15 15 -23 17 -16 3 7 -3 19 -13 28 -15 16 -16 15 -4
-12z"/>
<path d="M2465 3590 c4 -6 11 -8 16 -5 14 9 11 15 -7 15 -8 0 -12 -5 -9 -10z"/>
<path d="M2706 3665 c-11 -8 -15 -15 -10 -15 6 0 14 4 20 9 5 5 20 11 34 14
l25 4 -25 1 c-14 1 -34 -5 -44 -13z"/>
<path d="M2805 3475 c-25 -11 -27 -14 -9 -14 12 -1 27 6 34 14 15 18 14 18
-25 0z"/>
<path d="M2546 3455 c-3 -9 -6 -22 -5 -28 0 -7 5 -1 10 12 5 13 8 26 5 28 -2
2 -6 -3 -10 -12z"/>
<path d="M2846 3287 c3 -10 9 -15 12 -12 3 3 0 11 -7 18 -10 9 -11 8 -5 -6z"/>
<path d="M3011 3138 c0 -9 -4 -25 -7 -35 -5 -14 -4 -15 5 -7 7 7 11 22 8 35
-2 13 -5 16 -6 7z"/>
<path d="M2976 3065 c-11 -8 -15 -15 -9 -15 6 0 16 7 23 15 16 19 11 19 -14 0z"/>
<path d="M3192 3060 c0 -14 2 -19 5 -12 2 6 2 18 0 25 -3 6 -5 1 -5 -13z"/>
<path d="M3172 3005 c-15 -33 -15 -35 2 -35 8 0 17 7 20 16 4 9 2 13 -5 8 -8
-4 -9 1 -4 15 9 29 1 26 -13 -4z"/>
<path d="M2826 2975 c-3 -9 -6 -22 -5 -28 0 -7 5 -1 10 12 5 13 8 26 5 28 -2
2 -6 -3 -10 -12z"/>
<path d="M2786 2914 c-11 -8 -16 -14 -10 -14 13 0 39 18 34 24 -3 2 -14 -2
-24 -10z"/>
<path d="M3242 2840 c0 -14 2 -19 5 -12 2 6 2 18 0 25 -3 6 -5 1 -5 -13z"/>
<path d="M3212 2783 c-30 -33 -23 -40 8 -8 13 14 21 27 19 29 -2 3 -14 -7 -27
-21z"/>
<path d="M1784 3995 c9 -29 16 -35 38 -35 16 0 28 -4 28 -10 0 -5 11 -10 24
-10 13 0 27 -7 30 -16 4 -9 9 -15 11 -12 12 12 -9 38 -31 38 -15 0 -22 5 -18
13 4 10 -3 12 -26 9 -27 -4 -30 -1 -30 21 0 20 -16 37 -34 37 -2 0 2 -16 8
-35z"/>
<path d="M1875 4020 c-17 -6 -14 -8 15 -11 24 -3 34 -9 32 -18 -3 -12 -1 -12
13 -1 15 12 14 15 -7 26 -27 15 -26 15 -53 4z"/>
<path d="M2022 3992 c-7 -2 4 -12 25 -23 20 -10 39 -17 41 -14 3 3 1 5 -4 5
-6 0 -19 8 -30 18 -11 10 -25 17 -32 14z"/>
<path d="M1888 3973 c7 -3 16 -2 19 1 4 3 -2 6 -13 5 -11 0 -14 -3 -6 -6z"/>
<path d="M2100 3946 c0 -2 14 -14 30 -26 17 -12 30 -19 30 -16 0 2 -13 14 -30
26 -16 12 -30 19 -30 16z"/>
<path d="M1950 3930 c-11 -7 -5 -10 25 -10 48 0 76 -14 50 -24 -9 -3 -29 -6
-43 -6 -50 0 -55 -16 -11 -30 l42 -14 -29 -14 c-26 -11 -26 -12 -4 -8 14 3 31
6 38 6 19 0 14 18 -8 25 -25 8 -26 25 -2 25 18 0 42 18 42 31 0 7 -55 29 -74
29 -6 0 -18 -5 -26 -10z"/>
<path d="M1743 3876 c-4 -8 -19 -16 -33 -18 -20 -2 -25 -9 -25 -32 0 -20 -10
-36 -35 -57 -19 -16 -30 -29 -24 -29 5 0 27 16 47 35 32 30 36 38 26 56 -10
19 -8 20 23 17 28 -2 32 0 30 16 -3 15 1 18 20 12 61 -17 68 -18 68 -8 0 5 11
7 24 5 13 -3 32 0 43 6 15 8 9 10 -29 11 -26 0 -50 -5 -53 -10 -4 -7 -12 -7
-25 0 -26 14 -48 12 -57 -4z"/>
<path d="M2075 3849 c-16 -7 -14 -8 9 -4 23 5 27 3 23 -9 -4 -9 -2 -16 3 -16
6 0 10 6 10 14 0 8 6 17 13 19 6 3 1 5 -13 6 -14 0 -34 -5 -45 -10z"/>
<path d="M1890 3816 c0 -9 30 -14 35 -6 4 6 -3 10 -14 10 -12 0 -21 -2 -21 -4z"/>
<path d="M1746 3802 c-5 -8 121 -8 129 0 3 2 -24 5 -60 6 -36 0 -67 -3 -69 -6z"/>
<path d="M1889 3763 c-13 -16 -12 -17 4 -4 9 7 17 15 17 17 0 8 -8 3 -21 -13z"/>
<path d="M1965 3768 c-11 -6 -29 -20 -39 -30 -11 -10 -27 -18 -37 -18 -9 0
-22 -7 -29 -15 -7 -9 -22 -12 -40 -9 -15 4 -31 1 -34 -5 -13 -21 -26 -11 -26
19 0 28 -2 30 -37 28 -37 -1 -37 -1 -5 -5 27 -4 32 -8 32 -32 0 -37 8 -43 33
-26 15 11 24 12 34 3 10 -8 19 -6 38 12 13 12 31 20 39 17 8 -3 22 4 33 15 27
30 73 52 85 40 7 -7 0 -17 -23 -31 -19 -11 -41 -26 -49 -34 -8 -8 -25 -18 -38
-21 -12 -4 -27 -16 -32 -27 -6 -10 -19 -19 -30 -19 -10 0 -22 -4 -25 -10 -4
-6 7 -8 27 -4 52 9 58 12 52 27 -4 10 6 17 31 21 27 5 35 11 31 22 -4 10 4 18
21 25 28 11 52 36 53 57 0 15 -38 15 -65 0z"/>
<path d="M2177 3683 c-10 -10 -8 -25 2 -19 5 4 12 0 14 -6 3 -7 6 -3 6 10 1
22 -9 29 -22 15z"/>
<path d="M2006 3664 c-18 -17 -20 -24 -8 -24 4 0 13 9 20 20 15 24 9 26 -12 4z"/>
<path d="M2056 3658 c-9 -12 -16 -32 -16 -43 1 -15 4 -12 14 11 8 18 19 35 25
38 19 12 24 -23 7 -48 -8 -14 -11 -26 -6 -28 8 -3 4 -32 -15 -95 -6 -18 -3
-23 11 -23 15 0 16 2 5 9 -11 7 -11 12 2 31 8 12 13 29 10 36 -3 8 -1 20 5 27
5 6 9 32 8 57 -1 52 -24 65 -50 28z"/>
<path d="M1940 3600 c-17 -16 -26 -30 -21 -30 5 0 13 5 17 11 4 8 9 7 16 -2 8
-11 9 -11 5 1 -2 8 2 23 11 33 25 28 5 19 -28 -13z"/>
<path d="M1790 3592 c0 -4 -13 -13 -29 -20 -20 -9 -28 -20 -28 -37 0 -21 2
-23 19 -14 15 8 17 14 9 22 -8 8 -3 14 19 23 29 12 41 34 20 34 -5 0 -10 -3
-10 -8z"/>
<path d="M2182 3580 c0 -14 2 -19 5 -12 2 6 2 18 0 25 -3 6 -5 1 -5 -13z"/>
<path d="M2250 3576 c0 -8 -6 -16 -12 -19 -10 -3 -10 -7 0 -20 8 -10 11 -25 7
-39 -7 -22 -7 -23 8 -3 11 15 13 23 4 33 -8 10 -8 19 1 32 7 12 8 21 2 25 -6
3 -10 0 -10 -9z"/>
<path d="M1885 3550 c-3 -6 -16 -8 -28 -6 -12 1 -16 1 -9 -1 8 -3 11 -11 8
-19 -4 -11 -2 -12 14 -2 11 7 22 18 24 25 6 15 0 17 -9 3z"/>
<path d="M2013 3530 c-13 -5 -23 -16 -23 -24 0 -9 -12 -16 -32 -18 -27 -2 -34
-8 -36 -28 l-3 -25 16 23 c11 14 27 22 46 22 17 0 28 4 25 8 -6 11 5 26 29 40
24 14 9 15 -22 2z"/>
<path d="M2170 3507 c0 -20 4 -38 9 -42 6 -3 7 10 4 32 -8 50 -13 55 -13 10z"/>
<path d="M2376 3491 c-9 -16 -16 -40 -15 -53 1 -17 3 -15 9 9 4 18 13 40 20
48 7 9 10 18 7 21 -3 3 -13 -8 -21 -25z"/>
<path d="M1665 3440 c-10 -22 -16 -42 -14 -45 3 -2 14 16 25 41 11 24 18 44
14 44 -4 0 -15 -18 -25 -40z"/>
<path d="M2262 3469 c3 -8 -5 -18 -16 -24 -13 -6 -22 -22 -24 -40 -3 -35 -32
-105 -42 -105 -5 0 -11 -8 -14 -17 -3 -10 7 -3 24 16 16 19 34 56 41 82 8 31
19 51 31 55 20 6 24 29 7 40 -7 4 -10 1 -7 -7z"/>
<path d="M2072 3421 c-7 -29 -6 -38 2 -35 10 4 22 74 12 74 -2 0 -8 -18 -14
-39z"/>
<path d="M1857 3397 l-17 -32 25 28 c21 23 28 26 45 17 16 -9 20 -8 20 5 0 10
-9 15 -27 15 -21 0 -32 -8 -46 -33z"/>
<path d="M2099 3415 c-2 -11 -1 -14 5 -47 2 -13 1 -43 -4 -66 -4 -23 -4 -39 1
-37 14 9 22 115 11 138 -6 12 -11 18 -13 12z"/>
<path d="M1636 3362 c-4 -13 -5 -26 -2 -29 8 -9 169 16 187 29 11 8 9 8 -6 3
-11 -4 -52 -9 -92 -12 -64 -5 -71 -4 -75 13 -4 17 -5 16 -12 -4z"/>
<path d="M2126 3255 c-10 -8 -23 -12 -27 -9 -5 3 -9 0 -9 -5 0 -14 3 -14 35 1
14 6 25 15 25 20 0 10 -1 10 -24 -7z"/>
<path d="M2420 3122 c0 -17 42 -42 70 -41 l25 2 -25 4 c-14 3 -35 14 -47 26
-13 11 -23 15 -23 9z"/>
<path d="M4445 2650 c-14 -27 -25 -52 -25 -55 0 -3 12 -5 28 -4 20 0 40 14 75
55 l49 54 -51 0 -51 0 -25 -50z"/>
<path d="M511 2569 c-51 -15 -125 -95 -139 -151 -25 -99 -7 -174 57 -238 72
-71 179 -91 270 -49 40 17 46 18 53 4 5 -8 18 -15 28 -15 19 0 20 8 20 110 l0
110 -60 0 -60 0 0 -64 c0 -96 -10 -116 -60 -116 -123 0 -178 197 -90 319 32
43 75 59 127 46 32 -7 83 -52 83 -72 0 -14 10 -16 34 -7 41 16 -3 81 -76 114
-47 21 -130 25 -187 9z"/>
<path d="M1455 2572 c-79 -28 -129 -88 -145 -174 -6 -28 -10 -102 -10 -164 l0
-114 65 0 65 0 0 55 0 55 65 0 c63 0 65 1 65 25 0 24 -2 25 -66 25 l-66 0 4
101 c4 96 5 103 31 125 54 46 123 25 146 -45 25 -77 8 -280 -33 -375 -15 -36
-15 -40 1 -52 10 -7 21 -14 25 -14 14 0 69 81 98 145 91 204 13 401 -163 411
-34 2 -71 0 -82 -4z"/>
<path d="M2585 2569 c-45 -12 -115 -77 -136 -123 -24 -54 -24 -148 0 -202 23
-49 88 -107 140 -122 90 -28 193 -3 244 58 32 38 33 47 8 55 -15 4 -31 -5 -60
-34 -35 -35 -47 -41 -82 -41 -91 0 -141 63 -141 179 -1 48 5 78 20 106 32 64
56 80 119 80 49 0 58 -3 83 -31 15 -17 29 -37 32 -44 3 -10 9 -10 26 -1 30 16
28 28 -16 71 -54 55 -151 75 -237 49z"/>
<path d="M860 2345 l0 -225 60 0 59 0 3 83 c3 72 5 82 21 82 13 0 23 -12 31
-37 7 -20 25 -57 40 -82 l27 -46 77 0 77 0 -45 43 c-51 47 -100 108 -100 125
0 6 12 13 28 17 85 19 131 128 86 204 -30 50 -68 61 -224 61 l-140 0 0 -225z
m238 161 c12 -11 17 -34 17 -71 0 -72 -29 -105 -92 -105 l-43 0 0 101 0 102
51 -5 c28 -3 58 -13 67 -22z"/>
<path d="M1800 2345 l0 -225 25 0 25 0 1 113 c0 61 1 129 1 150 0 20 4 37 8
37 4 0 41 -39 82 -87 42 -49 98 -113 126 -143 29 -30 52 -58 52 -62 0 -5 20
-8 45 -8 l45 0 0 225 0 225 -25 0 -25 0 0 -157 -1 -158 -32 35 c-31 35 -59 66
-185 209 -59 65 -67 71 -103 71 l-39 0 0 -225z"/>
<path d="M2920 2345 l0 -225 60 0 59 0 3 98 3 97 80 0 80 0 3 -97 3 -98 64 0
65 0 0 225 0 225 -65 0 -65 0 0 -100 0 -100 -85 0 -85 0 0 100 0 100 -60 0
-60 0 0 -225z"/>
<path d="M3410 2345 l0 -226 63 3 62 3 3 200 c1 110 0 210 -3 223 -5 20 -11
22 -65 22 l-60 0 0 -225z"/>
<path d="M3660 2545 c0 -13 -7 -57 -15 -97 -15 -74 -55 -307 -55 -321 0 -4 15
-7 34 -7 43 0 42 -1 56 164 6 72 15 136 19 144 7 13 23 -34 89 -255 l15 -53
58 0 58 0 12 43 c6 23 17 62 25 87 7 25 20 78 30 118 18 79 34 80 34 4 0 -38
9 -116 26 -219 5 -33 5 -33 64 -33 68 0 66 -4 50 94 -5 34 -16 113 -25 176
-27 202 -17 180 -84 180 l-58 0 -12 -42 c-7 -24 -31 -101 -53 -173 l-41 -130
-23 70 c-12 39 -36 116 -53 173 l-32 102 -59 0 c-57 0 -60 -1 -60 -25z"/>
<path d="M4256 2542 c-51 -99 -58 -230 -17 -315 76 -156 301 -159 378 -4 22
43 25 62 26 197 l2 150 -62 0 -63 0 0 -169 c0 -158 -1 -170 -22 -201 -44 -65
-112 -60 -149 10 -29 54 -26 240 5 338 7 21 5 22 -38 22 -40 0 -47 -4 -60 -28z"/>
<path d="M2264 2055 c-8 -19 3 -35 26 -35 19 0 30 17 23 38 -6 17 -42 15 -49
-3z"/>
<path d="M2101 1918 c17 -46 34 -87 39 -91 21 -22 44 1 76 78 38 90 39 95 20
95 -14 0 -24 -21 -46 -92 -6 -21 -15 -38 -19 -38 -4 0 -13 17 -20 38 -29 85
-33 92 -57 92 l-23 0 30 -82z"/>
<path d="M2260 1910 c0 -89 0 -90 25 -90 25 0 25 1 25 90 0 89 0 90 -25 90
-25 0 -25 -1 -25 -90z"/>
<path d="M2350 1910 c0 -89 0 -90 25 -90 24 0 25 3 25 58 0 67 20 105 53 100
20 -3 22 -9 21 -73 0 -38 -2 -80 -5 -92 -7 -37 15 -28 40 17 30 54 33 120 7
149 -25 28 -79 28 -105 0 l-19 -21 -11 21 c-22 41 -31 21 -31 -69z"/>
<path d="M2579 1971 c-20 -20 -29 -39 -29 -61 0 -48 47 -90 100 -90 53 0 100
42 100 90 0 48 -47 90 -100 90 -33 0 -48 -6 -71 -29z m94 6 c22 -16 32 -74 18
-109 -8 -22 -17 -28 -41 -28 -24 0 -33 6 -41 28 -19 48 6 122 41 122 3 0 14
-6 23 -13z"/>
<path d="M2787 1982 c-26 -29 -21 -59 13 -77 16 -8 37 -15 48 -15 21 0 42 -18
42 -37 0 -18 -65 -17 -80 2 -10 12 -16 13 -26 4 -22 -18 13 -38 67 -39 50 0
79 21 79 58 0 24 -9 32 -69 53 -51 18 -61 33 -31 49 16 9 27 7 50 -7 23 -13
33 -14 42 -5 8 8 5 14 -16 22 -43 16 -101 12 -119 -8z"/>
</g>
</svg>
